<svg version="1.1" id="Layer_1" xmlns="http://www.w3.org/2000/svg" xmlns:xlink="http://www.w3.org/1999/xlink" x="0px" y="0px"
	 width="50px" height="50px" viewBox="0 0 50 50" enable-background="new 0 0 50 50" xml:space="preserve">
<g>
	<g>
		<g>
			<g>
				<path fill="#FFFFFF" d="M19.237,5.737c0.046,0.088,0.1,0.171,0.172,0.241l7.707,7.708c-0.701-0.133-1.411-0.201-2.117-0.201
					c-3.074,0-5.958,1.187-8.131,3.345L4.422,29.266c-0.03,0.032-0.057,0.067-0.082,0.1l-2.969-2.963
					c-0.77-0.774-0.77-2.028,0-2.799L19.237,5.737 M19.237,5.195c-0.143,0-0.281,0.056-0.383,0.159L0.988,23.22
					c-0.98,0.981-0.98,2.581-0.001,3.565l2.97,2.964c0.102,0.103,0.24,0.159,0.383,0.159c0.012,0,0.025,0,0.037-0.002
					c0.156-0.01,0.3-0.088,0.395-0.213c0.013-0.018,0.027-0.036,0.043-0.053l12.436-12.427c2.067-2.055,4.819-3.187,7.747-3.187
					c0.668,0,1.347,0.064,2.017,0.191c0.034,0.006,0.067,0.009,0.102,0.009c0.198,0,0.384-0.108,0.479-0.289
					c0.111-0.21,0.072-0.469-0.097-0.637l-7.707-7.707c-0.026-0.026-0.049-0.061-0.075-0.11c-0.08-0.153-0.229-0.258-0.398-0.284
					C19.291,5.197,19.264,5.195,19.237,5.195L19.237,5.195z"/>
			</g>
			<path fill="#FFFFFF" d="M24.999,0.794c0.527,0,1.025,0.207,1.4,0.58l17.87,17.871c-0.044,0.027-0.084,0.058-0.122,0.095
				l-7.817,7.82c0.684-3.705-0.492-7.577-3.149-10.258l-0.992-0.994l1.764-2.238c0.005-0.005,0.01-0.013,0.013-0.018
				c0.735-0.958,0.512-1.802,0.313-2.218c-0.004-0.012-0.01-0.024-0.016-0.037c-0.332-0.65-1.021-1.071-1.756-1.071
				c-0.489,0-0.941,0.168-1.385,0.519l-2.261,1.734l-8.023-8.025c-0.07-0.072-0.155-0.126-0.247-0.168l3.011-3.012
				C23.974,1.001,24.472,0.794,24.999,0.794 M24.999,0.251c-0.672,0-1.305,0.262-1.782,0.739l-3.011,3.012
				c-0.125,0.125-0.182,0.305-0.15,0.48c0.032,0.175,0.147,0.323,0.309,0.397c0.048,0.021,0.07,0.04,0.082,0.051l8.029,8.032
				c0.105,0.105,0.244,0.159,0.384,0.159c0.116,0,0.232-0.037,0.331-0.112l2.26-1.735c0.352-0.278,0.686-0.406,1.055-0.406
				c0.53,0,1.027,0.3,1.268,0.767c0.005,0.011,0.01,0.022,0.015,0.034c0.179,0.371,0.278,0.959-0.253,1.653
				c-0.005,0.006-0.01,0.012-0.014,0.018l-1.76,2.232c-0.17,0.216-0.151,0.525,0.043,0.719l0.992,0.994
				c2.535,2.559,3.657,6.214,3,9.777c-0.043,0.233,0.07,0.468,0.281,0.578c0.08,0.042,0.166,0.063,0.252,0.063
				c0.141,0,0.279-0.055,0.384-0.159l7.817-7.82c0.004-0.004,0.014-0.012,0.027-0.021c0.14-0.088,0.231-0.234,0.25-0.398
				c0.018-0.164-0.039-0.327-0.156-0.443L26.783,0.99C26.304,0.514,25.671,0.251,24.999,0.251L24.999,0.251z"/>
			<path fill="#FFFFFF" d="M13.638,22.908c-0.698,3.688,0.422,7.443,3.069,10.167l1.063,1.063l-1.726,2.19
				c-0.56,0.724-0.671,1.522-0.318,2.256c0.005,0.015,0.016,0.032,0.021,0.048c0.307,0.59,0.942,1.001,1.622,1.04
				c0.032,0.007,0.065,0.007,0.099,0.007c0.001,0,0.003,0,0.005,0s0.003,0,0.005,0c0.628,0,1.068-0.273,1.383-0.509l2.228-1.712
				l7.988,7.993c0.086,0.087,0.188,0.152,0.295,0.202l-2.972,2.974c-0.375,0.375-0.873,0.578-1.4,0.578
				c-0.527,0-1.025-0.203-1.398-0.578L5.748,30.775c0.035-0.025,0.071-0.051,0.103-0.083L13.638,22.908 M13.638,22.365
				c-0.141,0-0.279,0.055-0.384,0.159l-7.787,7.784c-0.001,0.001-0.002,0.002-0.003,0.003c-0.007,0.006-0.016,0.011-0.023,0.017
				c-0.13,0.092-0.216,0.239-0.23,0.398c-0.014,0.16,0.041,0.319,0.153,0.432l17.853,17.854c0.474,0.475,1.107,0.736,1.782,0.736
				s1.309-0.262,1.784-0.736l2.972-2.974c0.126-0.126,0.182-0.305,0.15-0.479c-0.031-0.174-0.146-0.322-0.307-0.396
				c-0.057-0.026-0.103-0.058-0.139-0.094l-7.988-7.993c-0.105-0.105-0.244-0.159-0.384-0.159c-0.116,0-0.232,0.037-0.331,0.112
				l-2.228,1.713c-0.272,0.203-0.594,0.396-1.052,0.396h-0.024c-0.018-0.002-0.035-0.004-0.053-0.006
				c-0.477-0.026-0.941-0.32-1.164-0.732c-0.002-0.006-0.005-0.011-0.007-0.017c-0.004-0.011-0.009-0.021-0.014-0.032
				c-0.332-0.69-0.043-1.3,0.258-1.688l1.724-2.187c0.17-0.216,0.152-0.525-0.042-0.719l-1.063-1.064
				c-2.526-2.599-3.591-6.13-2.919-9.683c0.044-0.234-0.069-0.469-0.28-0.581C13.811,22.386,13.724,22.365,13.638,22.365
				L13.638,22.365z"/>
			<path fill="#FFFFFF" d="M45.674,20.649l2.955,2.954c0.77,0.771,0.77,2.025,0,2.799L30.707,44.32
				c-0.051-0.108-0.117-0.211-0.203-0.295l-7.648-7.646c0.705,0.13,1.414,0.2,2.12,0.2c3.074,0,5.961-1.191,8.134-3.35
				l12.469-12.464C45.612,20.731,45.645,20.689,45.674,20.649 M45.674,20.106c-0.013,0-0.026,0-0.039,0.001
				c-0.158,0.012-0.303,0.091-0.396,0.218c-0.028,0.038-0.041,0.053-0.046,0.059L32.727,32.847
				c-2.072,2.058-4.825,3.191-7.751,3.191c-0.655,0-1.335-0.064-2.021-0.191c-0.033-0.007-0.066-0.009-0.099-0.009
				c-0.198,0-0.385,0.109-0.479,0.289c-0.111,0.211-0.071,0.469,0.097,0.637l7.648,7.645c0.035,0.035,0.066,0.082,0.094,0.141
				c0.074,0.16,0.223,0.275,0.396,0.306c0.032,0.006,0.063,0.009,0.096,0.009c0.143,0,0.28-0.057,0.383-0.159l17.922-17.919
				c0.981-0.984,0.98-2.584,0.001-3.565l-2.955-2.954C45.956,20.163,45.817,20.106,45.674,20.106L45.674,20.106z"/>
		</g>
		<path fill="#FFFFFF" d="M32.506,11.938c0.132,0,0.258,0.081,0.314,0.191c0.077,0.165,0.039,0.313-0.137,0.542l-7.317,9.285
			l0.278,0.381c0.382,0.521,1.577,2.245,3.877,5.6c0.137,0.2,0.184,0.873-0.197,1.161l-11.436,8.781
			c-0.18,0.135-0.285,0.183-0.411,0.183c-0.001,0-0.003-0.008-0.005-0.008s-0.001,0.008-0.005,0.008
			c-0.119-0.008-0.239-0.085-0.286-0.173c-0.038-0.077-0.117-0.24,0.131-0.561l7.301-9.267l-4.137-5.953
			c-0.264-0.373-0.175-0.921,0.195-1.204l11.446-8.792C32.312,11.961,32.421,11.938,32.506,11.938 M32.506,11.396
			c-0.244,0-0.467,0.09-0.724,0.292l-11.44,8.788c-0.603,0.46-0.742,1.334-0.308,1.947l3.905,5.619l-7.053,8.951
			c-0.306,0.396-0.369,0.776-0.191,1.137c0.003,0.006,0.006,0.011,0.008,0.016c0.139,0.26,0.425,0.439,0.73,0.458
			c0.011,0.001,0.022,0.001,0.034,0.001c0.002,0,0.003,0,0.005,0s0.003,0,0.005,0c0.288,0,0.502-0.115,0.735-0.29l11.441-8.786
			c0.615-0.465,0.616-1.457,0.315-1.897c-2.251-3.283-3.486-5.066-3.888-5.614l-0.034-0.048l7.063-8.961
			c0.126-0.165,0.445-0.585,0.202-1.107c-0.003-0.006-0.006-0.013-0.01-0.02C33.151,11.586,32.838,11.396,32.506,11.396
			L32.506,11.396z"/>
	</g>
	<g>
		<g>
			<path fill="#B5D8F2" d="M24.998,13.485c0.706,0,1.416,0.068,2.117,0.201l-7.707-7.708c-0.072-0.07-0.125-0.153-0.172-0.241
				L1.372,23.603c-0.77,0.771-0.77,2.025,0,2.799l2.969,2.963c0.025-0.032,0.052-0.067,0.082-0.1L16.867,16.83
				C19.04,14.672,21.924,13.485,24.998,13.485z"/>
			<path fill="#61D2B4" d="M28.86,12.579l2.261-1.734c0.443-0.351,0.896-0.519,1.385-0.519c0.734,0,1.424,0.421,1.756,1.071
				c0.006,0.013,0.012,0.025,0.016,0.037c0.199,0.416,0.423,1.26-0.313,2.218c-0.003,0.005-0.008,0.013-0.013,0.018l-1.764,2.238
				l0.992,0.994c2.657,2.681,3.833,6.553,3.149,10.258l7.817-7.82c0.038-0.037,0.078-0.067,0.122-0.095L26.399,1.374
				c-0.375-0.373-0.873-0.58-1.4-0.58c-0.527,0-1.025,0.207-1.398,0.58L20.59,4.386c0.092,0.042,0.177,0.096,0.247,0.168
				L28.86,12.579z"/>
			<path fill="#61D2B4" d="M21.088,37.459l-2.228,1.712c-0.314,0.235-0.755,0.509-1.383,0.509c-0.001,0-0.003,0-0.005,0
				s-0.004,0-0.005,0c-0.033,0-0.066,0-0.099-0.007c-0.68-0.039-1.315-0.45-1.622-1.04c-0.006-0.016-0.017-0.033-0.021-0.048
				c-0.353-0.733-0.241-1.532,0.318-2.256l1.726-2.19l-1.063-1.063c-2.646-2.724-3.767-6.479-3.069-10.167l-7.787,7.784
				c-0.031,0.032-0.068,0.058-0.103,0.083l17.853,17.853c0.374,0.375,0.872,0.578,1.398,0.578c0.527,0,1.025-0.203,1.4-0.578
				l2.972-2.974c-0.107-0.05-0.209-0.115-0.295-0.202L21.088,37.459z"/>
			<path fill="#B5D8F2" d="M48.629,23.603l-2.955-2.954c-0.029,0.041-0.062,0.083-0.096,0.118L33.109,33.23
				c-2.173,2.158-5.06,3.35-8.134,3.35c-0.706,0-1.415-0.07-2.12-0.2l7.648,7.646c0.086,0.084,0.152,0.187,0.203,0.295
				l17.922-17.918C49.398,25.628,49.398,24.374,48.629,23.603z"/>
		</g>
		<path fill="#F5D10A" d="M32.684,12.671l-7.317,9.285l0.278,0.381c0.382,0.521,1.577,2.245,3.877,5.6
			c0.137,0.2,0.184,0.873-0.197,1.161l-11.436,8.781c-0.18,0.135-0.285,0.183-0.411,0.183c-0.001,0-0.003-0.008-0.005-0.008
			s-0.001,0.008-0.005,0.008c-0.119-0.008-0.239-0.085-0.286-0.173c-0.038-0.077-0.117-0.24,0.131-0.561l7.301-9.267l-4.137-5.953
			c-0.264-0.373-0.175-0.921,0.195-1.204l11.446-8.792c0.193-0.152,0.303-0.175,0.388-0.175c0.132,0,0.258,0.081,0.314,0.191
			C32.897,12.294,32.859,12.441,32.684,12.671z"/>
	</g>
</g>
</svg>
