<svg version="1.1" id="Layer_1" xmlns="http://www.w3.org/2000/svg" xmlns:xlink="http://www.w3.org/1999/xlink" x="0px" y="0px"
	 width="50px" height="50px" viewBox="75 75 50 50" enable-background="new 75 75 50 50" xml:space="preserve">
<g>
	<path fill="#2BA977" d="M106.786,120.222l0.043-0.022c-0.538,0.329-1.12,0.649-1.755,0.965c-0.643,0.32-1.36,0.488-2.078,0.488
		c-0.681,0-1.367-0.153-1.989-0.445l-5.187-2.446c-1.629-0.767-2.68-2.43-2.675-4.229c0.002-0.22,0.018-0.437,0.049-0.65
		c-0.24,0.004-0.482,0.008-0.726,0.008c-9.419-0.011-15.042-5.09-15.042-13.582c0-7.478,4.851-12.904,12.045-13.832v-3.63
		c0-2.572,2.092-4.665,4.664-4.665h5.593c0.511,0,1.017,0.088,1.496,0.253c0.479-0.165,0.986-0.253,1.497-0.253h5.591
		c2.572,0,4.664,2.093,4.664,4.665v5.68c0,0.281-0.025,0.56-0.075,0.833c0.408,0.701,0.632,1.505,0.632,2.328v11.442
		c-0.105-0.002-0.208-0.015-0.314-0.015c-0.694,0-1.367,0.081-2.017,0.226V91.687c0-0.769-0.377-1.444-0.95-1.869
		c0.248-0.369,0.392-0.814,0.392-1.293v-5.68c0-1.288-1.044-2.332-2.331-2.332h-5.591c-0.572,0-1.091,0.215-1.497,0.558
		c-0.405-0.343-0.924-0.558-1.496-0.558h-5.593c-1.288,0-2.331,1.044-2.331,2.332v5.821c-0.033,0-0.066,0-0.102,0
		c-7.144,0-11.944,4.678-11.944,11.641c0,7.139,4.634,11.239,12.713,11.249c0,0,0.001,0,0.002,0c2.228,0,4.265-0.19,6.839-0.644
		c-0.504,0.467-1.251,0.943-2.484,1.516c-0.821,0.382-1.348,1.204-1.351,2.108c-0.002,0.906,0.52,1.73,1.338,2.116l5.188,2.447
		c0.314,0.146,0.655,0.221,0.993,0.221c0.356,0,0.712-0.08,1.038-0.243c0.643-0.319,1.218-0.64,1.739-0.969
		c0.099,0.128,0.192,0.257,0.296,0.38c0.159,0.188,0.322,0.368,0.495,0.541l-0.379,0.381c-0.218,0.213-0.28,0.419-0.193,0.626
		c0.067,0.166,0.257,0.292,0.438,0.292C106.539,120.328,106.646,120.295,106.786,120.222z M99.729,108.468
		c-2.866,0.542-4.974,0.755-7.255,0.755c-6.829-0.006-10.383-3.057-10.383-8.916c0-5.645,3.771-9.309,9.612-9.309
		c0.908,0,1.6,0.071,2.433,0.285v-8.438h5.593V108.468z M94.332,95.901c-0.654-0.214-1.194-0.285-1.885-0.285
		c-2.828,0-4.461,1.724-4.461,4.748c0,2.942,1.561,4.566,4.424,4.566c0.619,0,1.123-0.034,1.922-0.142V95.901z M104.524,115.9
		c-0.421-1.063-0.658-2.222-0.658-3.435c0-0.73,0.092-1.438,0.25-2.122c0.289-1.234,0.821-2.376,1.546-3.37
		c0.761-1.037,1.725-1.916,2.839-2.571c0.121-0.07,0.245-0.137,0.369-0.201V91.687h-5.584v10.919c0,4.817-0.252,6.65-1.051,8.231
		c-0.763,1.546-1.957,2.561-4.425,3.708l5.188,2.444c0.606-0.303,1.137-0.597,1.605-0.897c-0.013-0.027-0.028-0.057-0.039-0.084
		C104.551,115.972,104.541,115.935,104.524,115.9z M108.313,82.845h-5.591v5.68h5.591V82.845z"/>
	<g>
		<path fill="#33CCCC" d="M119.874,105.904l-0.652,0.654l-0.66,0.656c1.33,1.354,2.156,3.209,2.156,5.251
			c0,4.135-3.364,7.501-7.499,7.501c-1.422,0-2.747-0.406-3.881-1.094l-0.941,0.497l-0.815,0.431l-0.089,0.047
			c1.585,1.23,3.568,1.973,5.727,1.973c5.156,0,9.354-4.194,9.354-9.354C122.573,109.912,121.54,107.597,119.874,105.904z"/>
		<path fill="#33CCCC" d="M107.645,117.465c-0.13-0.146-0.254-0.298-0.373-0.453c-0.474-0.619-0.855-1.312-1.119-2.062
			c-0.007-0.02-0.012-0.041-0.02-0.062c-0.261-0.762-0.412-1.572-0.412-2.422c0-0.008,0-0.015,0-0.025
			c0.008-1.718,0.597-3.297,1.578-4.56c0.44-0.568,0.962-1.069,1.545-1.492c0.703-0.508,1.497-0.896,2.354-1.138
			c0.611-0.171,1.255-0.27,1.919-0.279c0.036,0,0.067-0.005,0.103-0.005c0.104,0,0.209,0.004,0.313,0.008
			c0.865,0.037,1.69,0.225,2.455,0.53c0.39,0.152,0.761,0.344,1.115,0.56l0.943-0.499l0.901-0.479
			c-0.762-0.593-1.615-1.068-2.538-1.403c-0.899-0.329-1.861-0.521-2.864-0.557c-0.003,0-0.008,0-0.011,0
			c-0.105-0.003-0.208-0.015-0.314-0.015c-0.694,0-1.367,0.08-2.017,0.226c-0.824,0.184-1.605,0.477-2.332,0.861
			c-0.124,0.065-0.248,0.131-0.369,0.201c-1.114,0.656-2.077,1.534-2.839,2.571c-0.725,0.995-1.257,2.135-1.546,3.37
			c-0.158,0.685-0.25,1.393-0.25,2.122c0,1.214,0.237,2.371,0.658,3.436c0.017,0.034,0.026,0.071,0.04,0.106
			c0.011,0.028,0.026,0.057,0.039,0.085c0.306,0.723,0.702,1.398,1.171,2.016c0.098,0.129,0.192,0.258,0.296,0.38
			c0.158,0.188,0.321,0.368,0.494,0.541l0.651-0.651l0.661-0.659C107.797,117.636,107.72,117.549,107.645,117.465z"/>
	</g>
	<path fill="#FFCC00" d="M120.444,104.896c-0.065-0.165-0.254-0.29-0.437-0.29c-0.111,0-0.216,0.034-0.356,0.107l-0.705,0.374
		l-0.901,0.479l-0.943,0.5l-1.54,0.813L113.439,108l-2.063,1.093l-0.39,0.206l-2.599,1.372l-0.619,0.328
		c-0.237,0.124-0.38,0.34-0.388,0.576c-0.002,0.239,0.134,0.455,0.368,0.59l0.128,0.074l0.812,0.465l1.223,0.704l0.931,0.535
		c0.122,0.071,0.206,0.193,0.225,0.336c0.008,0.052-0.006,0.104-0.017,0.152c-0.018,0.084-0.052,0.166-0.112,0.226l-3.061,3.062
		l-0.66,0.66l-0.65,0.65l-0.381,0.381c-0.217,0.213-0.28,0.419-0.192,0.626c0.067,0.166,0.256,0.292,0.438,0.292
		c0.108,0,0.215-0.033,0.354-0.105l0.044-0.023l0.663-0.351l0.089-0.048l0.814-0.43l0.941-0.498l9.335-4.938
		c0.237-0.126,0.377-0.338,0.384-0.579c0.006-0.234-0.13-0.452-0.361-0.587l-3.091-1.788c-0.12-0.071-0.203-0.195-0.223-0.336
		c-0.017-0.136,0.031-0.276,0.129-0.378l3.051-3.052l0.66-0.656l0.652-0.654l0.38-0.378
		C120.471,105.308,120.533,105.101,120.444,104.896z"/>
</g>
</svg>
