<svg version="1.1" id="Layer_1" xmlns="http://www.w3.org/2000/svg" xmlns:xlink="http://www.w3.org/1999/xlink" x="0px" y="0px"
	 width="50px" height="50px" viewBox="0 0 50 50" enable-background="new 0 0 50 50" xml:space="preserve">
<g>
	<path fill="#FFCC00" d="M43.879,29.521c-0.061-0.152-0.234-0.269-0.402-0.269c-0.104,0-0.199,0.031-0.33,0.099l-0.649,0.347
		l-0.832,0.442l-0.872,0.461l-1.423,0.752l-1.959,1.035l-1.905,1.006l-0.357,0.19l-2.4,1.269l-0.572,0.303
		c-0.219,0.113-0.351,0.313-0.357,0.533c-0.002,0.221,0.123,0.42,0.341,0.543l0.118,0.067l0.748,0.431l1.129,0.649l0.859,0.494
		c0.111,0.065,0.189,0.178,0.207,0.312c0.008,0.049-0.006,0.096-0.015,0.141c-0.017,0.078-0.05,0.152-0.104,0.208l-2.826,2.827
		l-0.608,0.608l-0.603,0.603l-0.352,0.352c-0.199,0.197-0.257,0.389-0.178,0.58c0.063,0.15,0.236,0.268,0.406,0.268
		c0.099,0,0.197-0.029,0.326-0.098l0.041-0.021l0.611-0.323l0.081-0.045l0.752-0.396l0.871-0.459l8.62-4.562
		c0.218-0.117,0.349-0.312,0.354-0.535c0.006-0.215-0.117-0.418-0.334-0.543l-2.853-1.649c-0.111-0.064-0.188-0.18-0.206-0.311
		c-0.016-0.124,0.027-0.256,0.115-0.35l2.82-2.815l0.607-0.606l0.605-0.604l0.348-0.351C43.9,29.899,43.96,29.71,43.879,29.521z"/>
	<path fill="#33CCCC" d="M44.143,31.39l-0.529,0.531l-0.607,0.605l-0.085,0.084c0.761,1.111,1.212,2.455,1.212,3.899
		c0,3.816-3.107,6.925-6.926,6.925c-1.313,0-2.536-0.373-3.583-1.009l-0.871,0.459L32,43.282l-0.081,0.045
		c1.462,1.137,3.294,1.82,5.287,1.82c4.762,0,8.64-3.871,8.64-8.637C45.846,34.591,45.205,32.825,44.143,31.39z"/>
	<path fill="#33CCCC" d="M41.092,29.062l0.235-0.125c-0.376-0.203-0.769-0.387-1.175-0.535c-0.832-0.303-1.719-0.48-2.646-0.514
		c-0.004,0-0.007,0-0.01,0c-0.099-0.002-0.192-0.014-0.292-0.014c-0.641,0-1.264,0.074-1.861,0.209
		c-0.762,0.168-1.482,0.439-2.154,0.795c-0.113,0.061-0.229,0.121-0.34,0.188c-1.029,0.604-1.92,1.414-2.621,2.373
		c-0.67,0.92-1.16,1.973-1.428,3.111c-0.146,0.633-0.232,1.285-0.232,1.961c0,1.12,0.221,2.189,0.609,3.17
		c0.014,0.033,0.023,0.068,0.036,0.101c0.011,0.026,0.024,0.053,0.037,0.077c0.282,0.67,0.646,1.291,1.08,1.861
		c0.09,0.119,0.178,0.238,0.272,0.353c0.146,0.174,0.297,0.34,0.457,0.499l0.603-0.602l0.608-0.607
		c-0.074-0.076-0.145-0.156-0.215-0.235c-0.119-0.135-0.233-0.274-0.343-0.419c-0.437-0.57-0.79-1.21-1.032-1.902
		c-0.009-0.017-0.013-0.037-0.02-0.058c-0.242-0.703-0.381-1.451-0.381-2.235c0-0.009,0-0.015,0-0.023
		c0.007-1.586,0.551-3.045,1.457-4.209c0.406-0.525,0.888-0.99,1.426-1.381c0.65-0.469,1.383-0.825,2.174-1.049
		c0.566-0.158,1.157-0.25,1.771-0.259c0.033,0,0.063-0.004,0.096-0.004c0.096,0,0.191,0.004,0.289,0.009
		c0.658,0.026,1.283,0.17,1.883,0.37l0.843-0.444L41.092,29.062z"/>
	<rect x="27.514" y="9.157" fill="#2BA977" width="5.162" height="5.244"/>
	<path fill="#2BA977" d="M19.585,16.951c-0.771-0.199-1.409-0.265-2.247-0.265c-5.395,0-8.876,3.383-8.876,8.597
		c0,5.409,3.282,8.227,9.587,8.231c2.107,0,4.053-0.195,6.699-0.695V9.158h-5.164L19.585,16.951L19.585,16.951z M19.766,29.421
		c-0.738,0.1-1.203,0.131-1.772,0.131c-2.646,0-4.087-1.5-4.087-4.217c0-2.792,1.508-4.384,4.119-4.384
		c0.639,0,1.138,0.065,1.742,0.263v8.207H19.766z"/>
	<path fill="#2BA977" d="M28.035,17.322v10.083c0,4.447-0.234,6.141-0.971,7.6c-0.705,1.43-1.808,2.367-4.086,3.424l4.791,2.258
		c0.148-0.074,0.281-0.147,0.422-0.221c-0.019-0.039-0.043-0.072-0.057-0.111c-0.021-0.043-0.041-0.084-0.066-0.149
		c-0.002-0.013-0.021-0.062-0.025-0.072c-0.461-1.163-0.693-2.383-0.693-3.622c0-0.728,0.09-1.48,0.264-2.238
		c0.305-1.289,0.852-2.484,1.633-3.556c0.813-1.106,1.816-2.018,2.988-2.706c0.104-0.06,0.209-0.117,0.313-0.174l0.072-0.038
		c0.185-0.098,0.381-0.17,0.569-0.256v-10.22L28.035,17.322L28.035,17.322z"/>
	<path fill="#2BA977" d="M29.467,42.597c-0.023-0.027-0.046-0.057-0.068-0.087l-0.039-0.051c-0.03-0.042-0.055-0.089-0.086-0.132
		c-0.18,0.097-0.354,0.191-0.547,0.287c-0.303,0.15-0.631,0.225-0.957,0.225c-0.313,0-0.627-0.066-0.92-0.205l-4.789-2.258
		c-0.756-0.355-1.236-1.117-1.235-1.954c0.002-0.835,0.489-1.595,1.247-1.946c1.139-0.528,1.828-0.969,2.294-1.398
		c-2.378,0.417-4.259,0.595-6.315,0.595c-0.001,0-0.001,0-0.002,0c-7.459-0.01-11.738-3.796-11.738-10.389
		c0-6.429,4.433-10.749,11.028-10.749c0.033,0,0.063,0,0.095,0V9.158c0-1.19,0.963-2.153,2.152-2.153h5.164
		c0.529,0,1.008,0.198,1.382,0.516c0.374-0.317,0.854-0.516,1.382-0.516h5.163c1.188,0,2.153,0.963,2.153,2.153v5.245
		c0,0.443-0.135,0.853-0.361,1.193c0.528,0.393,0.877,1.017,0.877,1.727v9.523c0.618-0.121,1.243-0.191,1.86-0.191
		c0.083,0,0.162,0.004,0.239,0.008l0.053,0.004v-9.343c0-0.761-0.207-1.503-0.583-2.15c0.046-0.252,0.067-0.51,0.067-0.77V9.159
		c0-2.375-1.93-4.307-4.307-4.307h-5.162c-0.471,0-0.938,0.08-1.383,0.232c-0.441-0.152-0.908-0.232-1.382-0.232h-5.164
		c-2.376,0-4.308,1.932-4.308,4.307v3.352C8.634,13.367,4.154,18.379,4.154,25.284c0,7.842,5.193,12.531,13.891,12.539
		c0.225,0,0.447,0,0.669-0.006c-0.028,0.199-0.043,0.398-0.043,0.601c-0.005,1.664,0.964,3.198,2.468,3.907l4.791,2.259
		c0.574,0.271,1.209,0.412,1.84,0.412c0.66,0,1.322-0.157,1.916-0.453c0.03-0.015,0.059-0.03,0.09-0.046
		c-0.152-0.15-0.285-0.318-0.369-0.521C29.217,43.517,29.252,43.032,29.467,42.597z"/>
</g>
</svg>