<?xml version="1.0" encoding="utf-8"?>
<!-- Generator: Adobe Illustrator 16.0.0, SVG Export Plug-In . SVG Version: 6.00 Build 0)  -->
<!DOCTYPE svg PUBLIC "-//W3C//DTD SVG 1.1//EN" "http://www.w3.org/Graphics/SVG/1.1/DTD/svg11.dtd">
<svg version="1.1" id="Layer_1" xmlns="http://www.w3.org/2000/svg" xmlns:xlink="http://www.w3.org/1999/xlink" x="0px" y="0px"
	 width="50px" height="50px" viewBox="0 0 50 50" enable-background="new 0 0 50 50" xml:space="preserve">
<g>
	<path fill="#FFCC00" d="M42.404,29.823c-0.064-0.163-0.25-0.285-0.43-0.285c-0.11,0-0.212,0.033-0.352,0.106l-0.694,0.368
		l-0.887,0.472l-0.932,0.492l-1.519,0.801l-2.089,1.104l-2.033,1.075l-0.383,0.203l-2.561,1.354l-0.61,0.322
		c-0.233,0.121-0.374,0.336-0.381,0.568c-0.002,0.235,0.13,0.449,0.362,0.58l0.127,0.072l0.798,0.458l1.203,0.694l0.918,0.527
		c0.12,0.07,0.204,0.19,0.222,0.332c0.008,0.051-0.006,0.102-0.017,0.15c-0.017,0.082-0.052,0.162-0.111,0.221l-3.015,3.018
		l-0.65,0.649l-0.642,0.642l-0.374,0.374c-0.214,0.21-0.275,0.415-0.19,0.618c0.067,0.162,0.252,0.286,0.433,0.286
		c0.106,0,0.211-0.032,0.35-0.103l0.043-0.023l0.653-0.346l0.087-0.049l0.803-0.424l0.929-0.488l9.196-4.867
		c0.232-0.123,0.371-0.33,0.376-0.57c0.007-0.229-0.125-0.445-0.354-0.578l-3.045-1.761c-0.118-0.069-0.2-0.19-0.219-0.331
		c-0.017-0.133,0.03-0.271,0.125-0.372l3.009-3.005l0.648-0.647l0.645-0.645l0.371-0.373C42.429,30.229,42.491,30.025,42.404,29.823
		z"/>
	<path fill="#33CCCC" d="M42.686,31.818l-0.565,0.567l-0.648,0.645l-0.091,0.091c0.812,1.187,1.293,2.618,1.293,4.16
		c0,4.072-3.315,7.389-7.389,7.389c-1.401,0-2.705-0.398-3.822-1.076l-0.929,0.488l-0.803,0.424l-0.087,0.049
		c1.56,1.211,3.515,1.941,5.641,1.941c5.08,0,9.216-4.131,9.216-9.215C44.501,35.234,43.819,33.35,42.686,31.818z"/>
	<path fill="#33CCCC" d="M39.431,29.334l0.251-0.133c-0.401-0.219-0.819-0.412-1.253-0.57c-0.887-0.324-1.834-0.514-2.821-0.549
		c-0.005,0-0.008,0-0.012,0c-0.104-0.002-0.205-0.014-0.311-0.014c-0.683,0-1.347,0.078-1.986,0.222
		c-0.813,0.181-1.582,0.47-2.299,0.849c-0.12,0.064-0.243,0.129-0.362,0.199c-1.099,0.645-2.047,1.51-2.796,2.532
		c-0.715,0.981-1.237,2.104-1.523,3.32c-0.156,0.674-0.248,1.37-0.248,2.091c0,1.195,0.235,2.338,0.65,3.383
		c0.016,0.035,0.025,0.072,0.038,0.105c0.012,0.03,0.027,0.057,0.039,0.084c0.302,0.713,0.691,1.377,1.154,1.986
		c0.095,0.125,0.189,0.254,0.291,0.375c0.157,0.185,0.316,0.361,0.487,0.533l0.642-0.642l0.65-0.649
		c-0.078-0.082-0.154-0.167-0.229-0.251c-0.128-0.144-0.249-0.294-0.366-0.448c-0.466-0.609-0.842-1.291-1.102-2.028
		c-0.008-0.019-0.013-0.042-0.02-0.062c-0.259-0.75-0.407-1.549-0.407-2.387c0-0.008,0-0.014,0-0.024
		c0.008-1.692,0.589-3.247,1.556-4.491c0.434-0.561,0.946-1.055,1.521-1.471c0.692-0.5,1.475-0.883,2.318-1.121
		c0.604-0.169,1.235-0.266,1.89-0.275c0.036,0,0.066-0.004,0.102-0.004c0.104,0,0.206,0.004,0.309,0.008
		c0.702,0.029,1.37,0.182,2.009,0.396l0.898-0.475L39.431,29.334z"/>
	<g>
		<path fill="#009CDE" d="M27.243,45.126c-0.1-0.236-0.246-0.793,0.142-1.386c-0.06-0.075-0.12-0.15-0.178-0.228l-0.051-0.068
			c-0.504-0.662-0.918-1.378-1.234-2.108c-0.966,0.714-2.163,1.14-3.458,1.14v-0.001c-3.185,0-5.813-2.627-5.733-5.812
			c0-1.435,0.557-2.787,1.434-3.821c1.194-1.434,2.708-2.867,4.379-4.778c1.615,1.751,2.774,2.989,3.815,4.293
			c0.204-0.37,0.425-0.731,0.676-1.077c0.552-0.753,1.197-1.407,1.912-1.977c-0.065-0.067-0.127-0.139-0.193-0.205l-1.514-1.591
			l-5.094-5.255c-1.035-0.956-2.07-2.07-3.026-3.105c0-0.08-0.08-0.08-0.08-0.08c-0.159-0.239-0.318-0.478-0.397-0.796v-0.16
			c-0.16-0.876,0.159-1.752,0.796-2.389c0.956-0.955,1.991-1.991,2.946-3.025c1.035,1.115,2.15,2.23,3.264,3.344
			c2.229,2.07,4.22,4.38,6.052,6.847c0.938,1.333,1.598,2.788,1.966,4.328c0.538-0.088,1.078-0.147,1.618-0.147
			c0.079,0,0.155,0.004,0.231,0.009l0.126,0.006c1.076,0.038,2.129,0.243,3.129,0.608c0.038,0.014,0.077,0.033,0.115,0.047
			c-0.819-6.662-5.489-11.354-9.654-15.519v0c-3.105-3.025-6.052-5.972-6.928-9.315c-0.876,3.344-3.822,6.291-6.927,9.316
			c-4.618,4.618-9.873,9.873-9.873,17.755C5.265,39.21,12.67,46.936,21.907,47.094c2.228,0.039,4.365-0.367,6.333-1.122
			C27.799,45.857,27.42,45.551,27.243,45.126z M14.104,31.487c-0.478,0.638-0.955,1.354-1.274,2.07
			c-0.08,0.079-0.16,0.239-0.318,0.239h-0.08c-0.398,0-0.796-0.717-0.796-0.717c-0.08-0.16-0.239-0.398-0.319-0.558l-0.08-0.16
			c-1.036-2.229-0.16-5.335-0.16-5.335c0.398-1.511,1.115-3.024,1.991-4.299c0.557-0.796,1.194-1.591,1.831-2.388l0.796,0.796
			l3.742,3.821c0.16,0.159,0.16,0.398,0,0.557l-3.902,4.38L14.104,31.487L14.104,31.487z"/>
	</g>
</g>
</svg>
