<?xml version="1.0" encoding="utf-8"?>
<!-- Generator: Adobe Illustrator 16.0.0, SVG Export Plug-In . SVG Version: 6.00 Build 0)  -->
<!DOCTYPE svg PUBLIC "-//W3C//DTD SVG 1.1//EN" "http://www.w3.org/Graphics/SVG/1.1/DTD/svg11.dtd">
<svg version="1.1" id="Layer_1" xmlns="http://www.w3.org/2000/svg" xmlns:xlink="http://www.w3.org/1999/xlink" x="0px" y="0px"
	 width="50px" height="50px" viewBox="100 100 50 50" enable-background="new 100 100 50 50" xml:space="preserve">
<g>
	<g>
		<g>
			<path fill="#FFCC00" d="M147.082,130.223c-0.072-0.185-0.281-0.322-0.484-0.322c-0.125,0-0.238,0.037-0.396,0.119l-0.783,0.416
				l-1,0.531l-1.051,0.556l-1.715,0.905l-2.355,1.244l-2.293,1.213l-0.432,0.23l-2.889,1.525l-0.689,0.364
				c-0.264,0.137-0.422,0.378-0.43,0.642c-0.004,0.266,0.146,0.507,0.408,0.654l0.143,0.081l0.9,0.517l1.357,0.783l1.037,0.596
				c0.135,0.078,0.229,0.215,0.25,0.374c0.008,0.058-0.008,0.114-0.02,0.17c-0.02,0.093-0.059,0.183-0.125,0.249l-3.402,3.403
				l-0.734,0.733l-0.723,0.723l-0.422,0.424c-0.24,0.236-0.311,0.467-0.215,0.697c0.076,0.184,0.285,0.322,0.488,0.322
				c0.121,0,0.238-0.035,0.395-0.116l0.049-0.027l0.736-0.39l0.098-0.053l0.906-0.479l1.047-0.553l10.375-5.488
				c0.262-0.141,0.42-0.373,0.426-0.646c0.006-0.258-0.143-0.502-0.402-0.65l-3.434-1.987c-0.133-0.079-0.227-0.216-0.246-0.373
				c-0.02-0.15,0.033-0.308,0.141-0.421l3.395-3.39l0.73-0.73l0.727-0.727l0.42-0.421C147.111,130.68,147.18,130.45,147.082,130.223
				z"/>
			<path fill="#33CCCC" d="M147.4,132.473l-0.639,0.64l-0.73,0.728l-0.104,0.102c0.916,1.339,1.459,2.954,1.459,4.693
				c0,4.594-3.74,8.337-8.336,8.337c-1.582,0-3.051-0.45-4.313-1.216l-1.047,0.553l-0.906,0.479l-0.098,0.053
				c1.76,1.368,3.965,2.191,6.363,2.191c5.73,0,10.398-4.661,10.398-10.396C149.449,136.326,148.68,134.2,147.4,132.473z"/>
		</g>
		<path fill="#33CCCC" d="M143.729,129.669l0.281-0.149c-0.451-0.246-0.924-0.465-1.412-0.644c-1-0.365-2.068-0.58-3.184-0.619
			c-0.006,0-0.008,0-0.012,0c-0.119-0.001-0.232-0.016-0.352-0.016c-0.77,0-1.52,0.09-2.24,0.251
			c-0.916,0.203-1.785,0.529-2.594,0.957c-0.137,0.073-0.275,0.146-0.408,0.224c-1.24,0.729-2.311,1.704-3.154,2.858
			c-0.807,1.106-1.396,2.373-1.719,3.745c-0.176,0.76-0.279,1.546-0.279,2.358c0,1.35,0.266,2.638,0.732,3.817
			c0.018,0.039,0.029,0.08,0.045,0.119c0.012,0.034,0.029,0.063,0.043,0.095c0.34,0.805,0.779,1.554,1.301,2.24
			c0.107,0.142,0.215,0.285,0.328,0.423c0.178,0.209,0.357,0.409,0.551,0.601l0.723-0.723l0.734-0.733
			c-0.088-0.093-0.174-0.188-0.26-0.282c-0.143-0.162-0.279-0.331-0.412-0.505c-0.525-0.688-0.949-1.456-1.242-2.289
			c-0.01-0.021-0.016-0.047-0.021-0.069c-0.293-0.847-0.459-1.748-0.459-2.693c0-0.008,0-0.016,0-0.026
			c0.008-1.909,0.664-3.664,1.754-5.067c0.49-0.632,1.068-1.189,1.717-1.659c0.781-0.564,1.664-0.995,2.615-1.265
			c0.682-0.19,1.393-0.299,2.131-0.311c0.041,0,0.076-0.004,0.115-0.004c0.117,0,0.232,0.004,0.35,0.008
			c0.791,0.033,1.545,0.206,2.266,0.447l1.014-0.534L143.729,129.669z"/>
	</g>
	<path fill="#CC3300" d="M127.662,136.194l-2.369,2.37c0.63,0.628,1.341,1.15,2.107,1.556c-0.037-0.39-0.059-0.786-0.059-1.187
		C127.342,137.99,127.455,137.074,127.662,136.194z"/>
	<path fill="#99CC33" d="M114.245,114.929c0.738-0.738,1.721-1.146,2.765-1.146s2.025,0.407,2.765,1.146l0.156,0.156l3.463-3.463
		c-1.659-1.638-3.854-2.539-6.187-2.539c-0.694,0-1.389,0.082-2.063,0.244c-0.033,0.008-0.066,0.012-0.1,0.012
		c-0.082,0-0.162-0.023-0.231-0.068c-0.099-0.063-0.166-0.163-0.189-0.277c-0.195-0.993-0.678-1.897-1.395-2.615
		c-0.963-0.962-2.241-1.492-3.603-1.492s-2.641,0.53-3.603,1.492c-1.986,1.986-1.986,5.219,0,7.205
		c0.658,0.658,1.49,1.123,2.405,1.344c0.113,0.027,0.211,0.1,0.271,0.2c0.059,0.101,0.073,0.222,0.042,0.334
		c-0.88,3.078-0.023,6.396,2.237,8.656l8.919,8.919l3.463-3.464l-9.115-9.115C112.721,118.933,112.721,116.453,114.245,114.929z"/>
	<path fill="#CC3300" d="M128.789,117.15l-3.462,3.463l7.839,7.84c1.592-0.883,3.414-1.403,5.354-1.452
		c-0.238-0.313-0.496-0.616-0.777-0.9L128.789,117.15z"/>
	<path fill="#3399FF" d="M119.708,135.29c-0.738,0.738-1.719,1.145-2.764,1.145c-1.044,0-2.025-0.407-2.765-1.146
		c-1.523-1.523-1.524-4.004,0-5.527l0.156-0.156l-3.463-3.464c-2.153,2.181-3.012,5.261-2.295,8.249
		c0.027,0.114,0.007,0.234-0.056,0.331c-0.063,0.099-0.164,0.168-0.278,0.19c-0.994,0.195-1.897,0.678-2.614,1.396
		c-1.986,1.986-1.986,5.217-0.001,7.204c0.963,0.962,2.242,1.492,3.604,1.492c1.36,0,2.64-0.53,3.602-1.492
		c0.659-0.659,1.124-1.491,1.344-2.405c0.027-0.113,0.1-0.212,0.2-0.27c0.066-0.038,0.141-0.059,0.216-0.059
		c0.04,0,0.079,0.006,0.118,0.017c0.789,0.226,1.606,0.34,2.43,0.34c2.353,0,4.563-0.916,6.227-2.579l4.91-4.908
		c0.834-1.746,2.088-3.253,3.631-4.388l-3.084-3.086L119.708,135.29z"/>
	<path fill="#FF9900" d="M139.811,115.255c-0.041-0.121-0.025-0.254,0.043-0.361c0.068-0.108,0.18-0.181,0.307-0.197
		c1.121-0.148,2.137-0.647,2.932-1.441c0.961-0.963,1.49-2.242,1.49-3.604c0-1.36-0.529-2.64-1.49-3.602
		c-0.963-0.963-2.242-1.492-3.604-1.492c-1.359,0-2.641,0.529-3.602,1.492c-0.84,0.839-1.361,1.95-1.471,3.131
		c-0.012,0.127-0.078,0.242-0.184,0.314c-0.072,0.05-0.156,0.074-0.242,0.074c-0.039,0-0.078-0.005-0.117-0.016
		c-0.789-0.225-1.605-0.339-2.426-0.339c-2.354,0-4.564,0.916-6.226,2.578l-8.951,8.951l3.463,3.463l8.951-8.95
		c0.738-0.739,1.721-1.146,2.766-1.146c1.043,0,2.025,0.406,2.764,1.146c0.738,0.737,1.145,1.72,1.145,2.764
		c0,1.041-0.404,2.02-1.137,2.757l3.463,3.463C140.043,121.875,140.857,118.434,139.811,115.255z"/>
	<path fill="#3399CC" d="M125.008,140.254c-0.396-0.326-0.967-0.325-1.362,0c-1.847,1.521-4.096,2.327-6.504,2.327
		c-0.376,0-0.757-0.021-1.13-0.063c-0.432-0.049-0.848,0.169-1.057,0.549c-0.295,0.539-0.665,1.032-1.099,1.467
		c-1.236,1.234-2.878,1.915-4.625,1.915c-1.748,0-3.39-0.681-4.625-1.915c-1.233-1.233-1.912-2.876-1.912-4.626
		c0-1.749,0.679-3.391,1.912-4.624c0.504-0.504,1.079-0.918,1.709-1.23c0.389-0.194,0.622-0.603,0.592-1.035
		c-0.186-2.644,0.655-5.222,2.366-7.261c0.331-0.395,0.334-0.97,0.008-1.367c-1.74-2.123-2.566-4.903-2.266-7.629
		c0.048-0.432-0.169-0.849-0.549-1.057c-0.54-0.296-1.033-0.666-1.467-1.1c-1.235-1.235-1.916-2.878-1.916-4.625
		c0.001-1.747,0.681-3.39,1.916-4.624c1.235-1.236,2.878-1.916,4.625-1.916s3.39,0.68,4.625,1.916
		c0.504,0.503,0.919,1.079,1.232,1.712c0.192,0.388,0.601,0.621,1.031,0.592c2.683-0.18,5.188,0.642,7.213,2.317
		c0.39,0.323,0.953,0.328,1.35,0.012c1.824-1.452,4.025-2.221,6.371-2.221c0.303,0,0.611,0.014,0.914,0.041
		c0.469,0.043,0.904-0.226,1.084-0.657c0.33-0.8,0.809-1.515,1.418-2.125c1.236-1.235,2.879-1.915,4.625-1.915
		s3.389,0.68,4.625,1.915c2.551,2.55,2.551,6.699,0,9.25c-0.551,0.55-1.184,0.991-1.879,1.312c-0.428,0.196-0.678,0.648-0.615,1.114
		c0.369,2.801-0.41,5.557-2.195,7.759c-0.32,0.395-0.318,0.962,0.004,1.354c0.334,0.406,0.633,0.834,0.896,1.276
		c0.438,0.057,0.867,0.136,1.287,0.239c0.48,0.101,0.951,0.228,1.408,0.384c-0.365-0.907-0.84-1.775-1.418-2.586
		c1.621-2.313,2.41-5.137,2.217-7.95c0.658-0.378,1.264-0.843,1.809-1.389c3.385-3.385,3.385-8.894,0-12.278
		c-1.639-1.64-3.82-2.543-6.139-2.543s-4.5,0.903-6.139,2.543c-0.627,0.627-1.15,1.338-1.557,2.119
		c-2.682-0.074-5.213,0.683-7.371,2.177c-2.104-1.517-4.581-2.313-7.216-2.313c-0.048,0-0.097,0-0.146,0.001
		c-0.361-0.6-0.796-1.154-1.296-1.655c-1.64-1.64-3.82-2.543-6.14-2.543s-4.5,0.903-6.14,2.544c-1.64,1.64-2.543,3.819-2.543,6.139
		s0.903,4.499,2.543,6.139c0.41,0.411,0.861,0.778,1.345,1.099c-0.146,2.782,0.661,5.568,2.271,7.843
		c-1.575,2.162-2.397,4.746-2.359,7.416c-0.598,0.361-1.149,0.794-1.649,1.293c-1.638,1.638-2.54,3.817-2.54,6.139
		c0,2.322,0.902,4.503,2.54,6.141c1.64,1.64,3.82,2.543,6.14,2.543s4.499-0.903,6.14-2.543c0.41-0.411,0.777-0.861,1.097-1.346
		c0.225,0.013,0.45,0.019,0.674,0.019c2.622,0,5.088-0.789,7.186-2.291c1.311,0.939,2.77,1.6,4.317,1.962
		c-0.455-0.809-0.818-1.678-1.072-2.592C126.658,141.419,125.795,140.903,125.008,140.254z"/>
</g>
</svg>
