<?xml version="1.0" encoding="utf-8"?>
<!-- Generator: Adobe Illustrator 16.0.0, SVG Export Plug-In . SVG Version: 6.00 Build 0)  -->
<!DOCTYPE svg PUBLIC "-//W3C//DTD SVG 1.1//EN" "http://www.w3.org/Graphics/SVG/1.1/DTD/svg11.dtd">
<svg version="1.1" id="Layer_1" xmlns="http://www.w3.org/2000/svg" xmlns:xlink="http://www.w3.org/1999/xlink" x="0px" y="0px"
	 width="50px" height="50px" viewBox="55 55 50 50" enable-background="new 55 55 50 50" xml:space="preserve">
<g>
	<g>
		<path fill="#5E8CDA" d="M99.225,79.304L88.069,68.148c-0.046-0.047-0.109-0.073-0.174-0.073c-0.005,0-0.01,0-0.015,0.001
			c-0.07,0.004-0.136,0.038-0.18,0.093l-4.754,6.033c-0.078,0.098-0.069,0.239,0.02,0.327l5.121,5.122
			c0.185,0.185,0.286,0.429,0.285,0.69c-0.001,0.259-0.102,0.5-0.283,0.681l-1.48,1.479c-0.084,0.084-0.097,0.215-0.031,0.313
			c0.369,0.553,0.974,1.461,1.029,1.562c0.186,0.371,0.248,1.319-0.299,1.735l-11.653,8.95c-0.061,0.046-0.097,0.118-0.097,0.195
			c0,0.993,0,2.334,0,3.685c0,1.363,0,2.734,0,3.767c0,0.515,0,0.946,0,1.247c0,0.151,0,0.27,0,0.351c0,0.173,0,0.276,0.137,0.345
			c0.034,0.018,0.071,0.026,0.11,0.026c0.102,0,0.143-0.04,0.241-0.139l0.194-0.194c0.171-0.17,0.421-0.42,0.739-0.738
			c0.636-0.635,1.544-1.542,2.633-2.631c2.179-2.179,5.084-5.083,7.99-7.986c5.81-5.807,11.619-11.616,11.619-11.616
			C99.787,80.801,99.787,79.873,99.225,79.304z"/>
		<path fill="#093071" d="M84.401,55.435l-0.004-0.005c-0.002-0.003-0.004-0.006-0.007-0.009l-0.006-0.007
			c-0.045-0.054-0.109-0.086-0.179-0.089c-0.004,0-0.008,0-0.012,0c-0.065,0-0.128,0.025-0.175,0.072l-23.237,23.24
			c-0.277,0.273-0.43,0.641-0.429,1.034c0,0.392,0.153,0.758,0.43,1.032l11.151,11.152c0.046,0.047,0.109,0.072,0.174,0.072
			c0.005,0,0.009,0,0.015,0c0.07-0.005,0.136-0.038,0.179-0.094l4.757-6.033c0.077-0.098,0.069-0.238-0.02-0.326l-5.127-5.123
			c-0.182-0.18-0.281-0.421-0.282-0.68c0-0.26,0.1-0.504,0.282-0.686l1.483-1.485c0.084-0.085,0.096-0.218,0.028-0.315l-1.013-1.455
			c-0.409-0.581-0.282-1.403,0.282-1.836l11.657-8.944c0.061-0.046,0.097-0.118,0.097-0.195l0.004-9.17
			C84.451,55.53,84.434,55.478,84.401,55.435z"/>
	</g>
	<path fill="#F2C913" d="M86.454,84.227l-12.908-8.383l5.701,8.197c0.123,0.188,0.111,0.508-0.024,0.688L69.01,97.689
		c-0.181,0.234-0.332,0.488-0.204,0.751c0.069,0.139,0.236,0.248,0.397,0.261c0.202-0.002,0.356-0.09,0.568-0.252l16.413-12.599
		C86.687,85.467,86.673,84.538,86.454,84.227z"/>
	<path fill="#F4D646" d="M91.193,61.564c-0.077-0.158-0.249-0.264-0.428-0.264c-0.158,0-0.309,0.068-0.538,0.243L73.809,74.152
		c-0.521,0.397-0.638,1.156-0.263,1.691l12.908,8.383c-0.187-0.273-5.647-8.19-5.702-8.27c-0.124-0.175-0.113-0.516,0.021-0.687
		l10.213-12.966l0.007-0.008C91.158,62.083,91.324,61.834,91.193,61.564z"/>
</g>
</svg>