<svg version="1.1" id="Layer_1" xmlns="http://www.w3.org/2000/svg" xmlns:xlink="http://www.w3.org/1999/xlink" x="0px" y="0px"
	 width="50px" height="50px" viewBox="0 0 50 50" enable-background="new 0 0 50 50" xml:space="preserve">
<g>
	<g>
		<path fill="#FFCC00" d="M43.431,29.373c-0.06-0.148-0.23-0.262-0.396-0.262c-0.1,0-0.193,0.031-0.32,0.098l-0.637,0.338
			l-0.813,0.432l-0.854,0.451l-1.393,0.735l-1.914,1.011l-1.863,0.985l-0.351,0.187l-2.347,1.24l-0.561,0.295
			c-0.214,0.111-0.342,0.309-0.35,0.521c-0.002,0.215,0.121,0.411,0.332,0.531l0.117,0.066l0.731,0.42l1.104,0.636l0.84,0.484
			c0.109,0.063,0.188,0.175,0.202,0.304c0.008,0.047-0.003,0.094-0.015,0.139c-0.017,0.074-0.049,0.148-0.102,0.201l-2.764,2.766
			l-0.596,0.596l-0.588,0.588l-0.344,0.343c-0.194,0.192-0.25,0.38-0.174,0.565c0.062,0.15,0.232,0.264,0.396,0.264
			c0.098,0,0.193-0.029,0.32-0.094l0.041-0.023l0.597-0.315l0.08-0.044l0.736-0.389l0.851-0.448l8.429-4.46
			c0.212-0.113,0.339-0.303,0.343-0.523c0.006-0.21-0.115-0.407-0.324-0.529l-2.791-1.613c-0.107-0.064-0.184-0.176-0.2-0.303
			c-0.015-0.123,0.028-0.251,0.115-0.342l2.757-2.754l0.594-0.594l0.59-0.59l0.342-0.342C43.453,29.746,43.51,29.559,43.431,29.373z
			"/>
		<path fill="#33CCCC" d="M43.688,31.201l-0.518,0.521l-0.596,0.591l-0.083,0.082c0.744,1.088,1.186,2.4,1.186,3.813
			c0,3.731-3.039,6.772-6.771,6.772c-1.285,0-2.48-0.367-3.503-0.988l-0.852,0.448l-0.735,0.389l-0.079,0.044
			c1.429,1.111,3.222,1.78,5.169,1.78c4.656,0,8.445-3.786,8.445-8.445C45.352,34.331,44.726,32.604,43.688,31.201z"/>
		<path fill="#33CCCC" d="M40.705,28.924l0.23-0.121c-0.368-0.2-0.752-0.379-1.149-0.521c-0.813-0.299-1.681-0.473-2.585-0.504
			c-0.005,0-0.007,0-0.011,0c-0.097-0.002-0.188-0.013-0.284-0.013c-0.625,0-1.235,0.071-1.82,0.203
			c-0.744,0.165-1.451,0.431-2.107,0.778c-0.109,0.059-0.223,0.118-0.332,0.182c-1.006,0.592-1.876,1.384-2.563,2.32
			c-0.654,0.9-1.134,1.93-1.395,3.043c-0.144,0.618-0.227,1.256-0.227,1.917c0,1.095,0.215,2.142,0.596,3.101
			c0.014,0.031,0.021,0.064,0.035,0.096c0.011,0.028,0.023,0.053,0.035,0.076c0.275,0.654,0.633,1.262,1.057,1.82
			c0.088,0.115,0.175,0.232,0.268,0.344c0.143,0.169,0.289,0.332,0.447,0.488l0.586-0.588l0.598-0.594
			c-0.072-0.076-0.143-0.154-0.211-0.23c-0.117-0.132-0.229-0.27-0.334-0.41c-0.429-0.559-0.773-1.184-1.01-1.86
			c-0.01-0.018-0.013-0.038-0.019-0.056c-0.237-0.688-0.373-1.42-0.373-2.187c0-0.007,0-0.013,0-0.022
			c0.006-1.551,0.54-2.977,1.425-4.116c0.397-0.513,0.867-0.967,1.396-1.349c0.635-0.457,1.351-0.809,2.124-1.026
			c0.554-0.155,1.133-0.243,1.732-0.253c0.033,0,0.061-0.004,0.092-0.004c0.096,0,0.189,0.004,0.284,0.008
			c0.642,0.027,1.257,0.166,1.841,0.363l0.824-0.434L40.705,28.924z"/>
	</g>
	<path fill="#539E43" d="M32.229,28.215c-0.594,0.349-1.139,0.759-1.637,1.225c0.199-0.309,0.297-0.676,0.297-1.116
		c0-0.94-0.359-1.624-5.089-2.094c-3.933-0.397-6.388-1.264-6.388-4.404c0-2.923,2.455-4.656,6.569-4.656
		c4.621,0,6.895,1.588,7.184,5.054c0,0.108-0.035,0.217-0.109,0.325c-0.07,0.072-0.18,0.145-0.287,0.145h-1.879
		c-0.18,0-0.359-0.145-0.396-0.326c-0.432-1.984-1.551-2.635-4.511-2.635c-3.322,0-3.718,1.156-3.718,2.022
		c0,1.045,0.469,1.37,4.944,1.947c4.084,0.532,6.173,1.287,6.483,3.82c-0.375,0.141-0.742,0.305-1.099,0.494l-0.039,0.02
		C32.444,28.094,32.335,28.151,32.229,28.215z M37.109,26.945c0.029,0.002,0.059,0.005,0.092,0.005c0.01,0,0.02,0.001,0.028,0.001
		c0.781,0.027,1.548,0.156,2.286,0.375V16.7c0-1.083-0.575-2.095-1.516-2.636L23.599,5.727c-0.902-0.506-2.129-0.506-3.033,0
		L6.165,14.064c-0.938,0.541-1.516,1.552-1.516,2.636v16.64c0,1.083,0.577,2.094,1.516,2.637l3.79,2.165
		c1.841,0.901,2.491,0.901,3.321,0.901c2.707,0,4.26-1.66,4.26-4.512V18.107c0-0.253-0.217-0.432-0.434-0.432H15.26
		c-0.252,0-0.433,0.216-0.433,0.432v16.424c0,1.264-1.335,2.526-3.465,1.443L7.428,33.7c-0.144-0.071-0.217-0.252-0.217-0.397
		V16.664c0-0.145,0.072-0.325,0.217-0.397l14.402-8.302c0.108-0.072,0.288-0.072,0.433,0l14.402,8.302
		c0.145,0.072,0.217,0.216,0.217,0.397v10.276c0.008-0.002,0.015-0.002,0.023-0.002C36.975,26.938,37.042,26.941,37.109,26.945z
		 M30.082,29.953c-0.689,0.467-1.838,0.68-3.523,0.68c-3.826,0-4.656-0.938-4.946-2.852c0-0.216-0.18-0.359-0.395-0.359h-1.879
		c-0.252,0-0.432,0.214-0.432,0.432c0,2.454,1.3,5.342,7.615,5.342c0.59,0,1.139-0.035,1.66-0.096
		c0.297-0.832,0.709-1.617,1.236-2.34C29.626,30.477,29.849,30.209,30.082,29.953z M28.371,39.814
		c-0.018-0.035-0.033-0.07-0.05-0.111c-0.007-0.021-0.017-0.044-0.028-0.076c-0.002-0.005-0.003-0.01-0.005-0.014
		c-0.115-0.293-0.216-0.59-0.301-0.889l-5.724,3.314c-0.109,0.071-0.289,0.071-0.433,0l-3.682-2.201
		c-0.108-0.072-0.253-0.109-0.361-0.035c-1.011,0.574-1.192,0.648-2.166,0.973c-0.217,0.073-0.577,0.217,0.144,0.614l4.801,2.851
		c0.47,0.254,0.976,0.396,1.517,0.396c0.505,0,1.046-0.107,1.516-0.323l5.476-3.171c-0.272-0.43-0.512-0.877-0.71-1.344
		C28.367,39.806,28.369,39.813,28.371,39.814z"/>
</g>
</svg>