<svg version="1.1" id="Layer_1" xmlns="http://www.w3.org/2000/svg" xmlns:xlink="http://www.w3.org/1999/xlink" x="0px" y="0px"
	 width="50px" height="50px" viewBox="0 0 50 50" enable-background="new 0 0 50 50" xml:space="preserve">
<g>
	<g>
		<path fill="#33CCCC" d="M44.175,30.431l-0.593,0.593l-0.598,0.597c1.206,1.228,1.954,2.909,1.954,4.763
			c0,3.75-3.052,6.803-6.802,6.803c-1.289,0-2.49-0.368-3.52-0.992l-0.854,0.451l-0.738,0.391l-0.081,0.043
			c1.438,1.115,3.236,1.789,5.193,1.789c4.678,0,8.486-3.805,8.486-8.484C46.623,34.064,45.686,31.965,44.175,30.431z"/>
		<path fill="#33CCCC" d="M33.081,40.916c-0.591-0.66-1.054-1.431-1.353-2.279c-0.25-0.707-0.392-1.463-0.392-2.254
			c0-0.008,0-0.014,0-0.022c0.006-1.559,0.542-2.991,1.431-4.137c1.227-1.581,3.131-2.608,5.277-2.638
			c0.031,0,0.061-0.004,0.092-0.004c0.889,0,1.732,0.176,2.51,0.487c0.354,0.139,0.691,0.312,1.013,0.508l0.856-0.454l0.817-0.433
			c-0.691-0.538-1.466-0.97-2.302-1.272c-0.817-0.299-1.689-0.473-2.599-0.505c-0.099-0.002-0.195-0.014-0.296-0.014
			c-1.562,0-3.021,0.43-4.278,1.169c-1.012,0.594-1.886,1.391-2.574,2.332c-0.658,0.902-1.14,1.937-1.402,3.057
			c-0.144,0.62-0.228,1.262-0.228,1.926c0,1.1,0.216,2.15,0.598,3.113c0.014,0.033,0.023,0.066,0.035,0.099
			c0.339,0.82,0.802,1.58,1.366,2.25c0.145,0.17,0.292,0.333,0.449,0.491l0.591-0.591l0.599-0.599
			C33.219,41.071,33.149,40.993,33.081,40.916z"/>
	</g>
	<g>
		<path fill="#539E43" d="M33.858,29.068c0.189-0.111,0.391-0.201,0.589-0.297c0.01-0.122,0.022-0.24,0.023-0.366
			c0-3.282-2.214-4.159-6.907-4.771c-4.732-0.61-5.228-0.954-5.228-2.06c0-0.916,0.419-2.138,3.93-2.138
			c3.129,0,4.313,0.688,4.77,2.785c0.039,0.191,0.23,0.344,0.42,0.344h1.985c0.114,0,0.229-0.077,0.305-0.153
			c0.077-0.114,0.114-0.229,0.114-0.343c-0.305-3.664-2.709-5.343-7.594-5.343c-4.35,0-6.945,1.832-6.945,4.922
			c0,3.32,2.595,4.236,6.754,4.655c5,0.497,5.381,1.222,5.381,2.214c0,1.718-1.373,2.442-4.578,2.442
			c-4.045,0-4.923-0.992-5.229-3.016c0-0.229-0.19-0.38-0.418-0.38h-1.986c-0.267,0-0.458,0.228-0.458,0.457
			c0,2.595,1.375,5.647,8.052,5.647c1.3,0,2.443-0.142,3.429-0.407c0.265-0.664,0.602-1.293,1.018-1.863
			C31.973,30.459,32.847,29.662,33.858,29.068z"/>
		<path fill="#539E43" d="M17.337,35.083V17.72c0-0.267-0.229-0.457-0.459-0.457h-1.947c-0.266,0-0.458,0.229-0.458,0.457v17.363
			c0,1.336-1.412,2.672-3.663,1.527l-4.16-2.405c-0.153-0.076-0.229-0.267-0.229-0.42V16.194c0-0.153,0.077-0.343,0.229-0.42
			l15.226-8.776c0.115-0.076,0.305-0.076,0.459,0l15.226,8.776c0.153,0.077,0.229,0.229,0.229,0.42v11.729
			c0.116-0.005,0.229-0.023,0.347-0.023c0.101,0,0.197,0.012,0.296,0.014c0.745,0.026,1.457,0.171,2.144,0.378V16.232
			c0-1.146-0.609-2.215-1.603-2.786L23.748,4.631c-0.955-0.535-2.252-0.535-3.207,0L5.315,13.446
			c-0.993,0.571-1.603,1.641-1.603,2.786v17.592c0,1.145,0.609,2.213,1.603,2.786l4.007,2.289c1.946,0.953,2.634,0.953,3.511,0.953
			C15.695,39.853,17.337,38.098,17.337,35.083z"/>
		<path fill="#539E43" d="M30.287,39.595c-0.012-0.032-0.021-0.065-0.035-0.099c-0.114-0.288-0.208-0.586-0.292-0.891l-7.624,4.416
			c-0.116,0.075-0.306,0.075-0.459,0l-3.893-2.328c-0.114-0.077-0.267-0.114-0.381-0.038c-1.069,0.609-1.26,0.687-2.29,1.03
			c-0.229,0.076-0.61,0.229,0.152,0.648l5.075,3.015c0.497,0.267,1.031,0.42,1.604,0.42c0.534,0,1.106-0.114,1.603-0.343
			l7.401-4.284C30.815,40.654,30.515,40.146,30.287,39.595z"/>
	</g>
	<path fill="#FFCC00" d="M44.691,29.517c-0.06-0.15-0.23-0.263-0.396-0.263c-0.102,0-0.195,0.029-0.323,0.098l-0.64,0.339
		l-0.817,0.433l-0.856,0.454l-1.397,0.737l-3.796,2.008l-3.272,1.729c-0.215,0.113-0.345,0.31-0.351,0.523
		c-0.001,0.218,0.12,0.412,0.333,0.534l0.853,0.489l1.952,1.125c0.111,0.064,0.188,0.175,0.204,0.305
		c0.007,0.047-0.005,0.094-0.015,0.138c-0.016,0.077-0.047,0.15-0.102,0.205l-2.776,2.776l-0.599,0.599l-0.591,0.591l-0.344,0.345
		c-0.197,0.192-0.255,0.38-0.176,0.567c0.062,0.15,0.232,0.266,0.397,0.266c0.099,0,0.195-0.031,0.322-0.096l0.641-0.34l0.081-0.043
		l0.738-0.391l0.854-0.451l8.467-4.479c0.215-0.114,0.343-0.306,0.348-0.525c0.005-0.212-0.117-0.411-0.328-0.532l-2.803-1.622
		c-0.108-0.063-0.184-0.177-0.201-0.304c-0.016-0.123,0.027-0.251,0.116-0.344l2.769-2.767l0.598-0.597l0.593-0.593l0.343-0.343
		C44.715,29.889,44.771,29.701,44.691,29.517z"/>
</g>
</svg>
