<svg version="1.1" id="Layer_1" xmlns="http://www.w3.org/2000/svg" xmlns:xlink="http://www.w3.org/1999/xlink" x="0px" y="0px"
	 width="50px" height="50px" viewBox="0 0 50 50" enable-background="new 0 0 50 50" xml:space="preserve">
<g>
	<polygon fill="#C71B24" points="7.272,36.802 7.281,36.788 7.272,36.795 	"/>
</g>
<g>
	<polygon fill="#C71B24" points="7.272,36.795 7.27,36.797 7.272,36.802 	"/>
</g>
<polygon fill="#CB0052" points="29.121,21.595 26.802,22.061 24.566,25.436 "/>
<polygon fill="#CB0052" points="15.66,21.596 20.316,25.52 18.031,22.072 "/>
<polygon fill="#CB0052" points="22.868,26.352 25.545,22.313 22.868,22.859 "/>
<polygon fill="#CB0052" points="21.959,26.354 21.959,22.861 19.289,22.324 "/>
<path fill="#CB0052" d="M18.429,21.213l3.14,0.639l-2.753-5.577l-3.918,4.239l3.484,0.687
	C18.401,21.201,18.417,21.205,18.429,21.213z"/>
<polygon fill="#CB0052" points="23.208,21.855 29.883,20.516 25.962,16.275 25.764,16.673 "/>
<polygon fill="#CB0052" points="15.369,13.881 14.646,19.447 18.209,15.592 "/>
<polygon fill="#CB0052" points="26.564,15.588 30.132,19.447 29.409,13.881 "/>
<polygon fill="#CB0052" points="19.669,15.948 19.875,16.365 22.39,21.419 25.11,15.948 "/>
<polygon fill="#CB0052" points="13.708,19.62 14.448,13.918 10.949,15.862 "/>
<polygon fill="#CB0052" points="31.073,19.62 33.832,15.862 30.333,13.917 "/>
<polygon fill="#CB0052" points="14.56,12.815 14.56,11.837 12.618,13.884 "/>
<polygon fill="#CB0052" points="30.221,11.837 30.221,12.815 32.162,13.884 "/>
<polygon fill="#CB0052" points="25.72,15.028 29.313,12.827 29.313,10.979 26.29,9.171 18.505,9.171 15.468,10.979 15.468,12.83 
	19.058,15.028 "/>
<path fill="#CB0052" d="M29.445,39.301c-0.012-0.031-0.021-0.065-0.035-0.098c-0.382-0.963-0.599-2.014-0.599-3.114
	c0-0.663,0.085-1.305,0.229-1.926c0.141-0.602,0.347-1.178,0.608-1.724v-4.269h4.635c0.382-0.147,0.775-0.27,1.183-0.36
	c0.589-0.131,1.2-0.204,1.829-0.204c0.098,0,0.19,0.011,0.286,0.013c0.001,0,0.002,0,0.003,0c0.01-0.045,0.015-0.091,0.015-0.139
	c0-0.383-0.31-0.691-0.691-0.691h-0.69v-1.383c0-0.382-0.31-0.691-0.691-0.691c-0.383,0-0.692,0.31-0.692,0.691v1.383h-5.185v-1.383
	c0-0.382-0.309-0.691-0.69-0.691s-0.691,0.31-0.691,0.691v1.383h-3.063l-1.639,1.382h4.703v9.679h-5.185v-9.273
	c-0.125,0.115-0.274,0.205-0.442,0.243c-0.082,0.021-0.166,0.032-0.25,0.032c-0.227,0-0.453-0.078-0.637-0.231L21.7,28.574v9.275
	h-5.185v-9.679h4.707l-1.643-1.382h-3.064v-1.383c0-0.382-0.309-0.691-0.692-0.691c-0.382,0-0.691,0.31-0.691,0.691v1.383H9.947
	v-1.383c0-0.382-0.309-0.691-0.691-0.691c-0.381,0-0.691,0.31-0.691,0.691v1.383H7.875c-0.383,0-0.692,0.309-0.692,0.691
	c0,0.381,0.309,0.69,0.692,0.69h0.691v9.679H7.875c-0.383,0-0.692,0.309-0.692,0.69s0.309,0.691,0.692,0.691h0.691v1.383
	c0,0.382,0.31,0.691,0.691,0.691c0.382,0,0.691-0.31,0.691-0.691v-1.383h5.185v1.383c0,0.382,0.309,0.691,0.691,0.691
	c0.383,0,0.692-0.31,0.692-0.691v-1.383H21.7v1.383c0,0.382,0.309,0.691,0.691,0.691s0.691-0.31,0.691-0.691v-1.383h5.185v1.383
	c0,0.382,0.31,0.691,0.691,0.691s0.69-0.31,0.69-0.691V39.74c-0.058-0.119-0.115-0.239-0.167-0.362
	C29.47,39.352,29.456,39.327,29.445,39.301z M15.132,37.85H9.947v-9.679h5.185V37.85z"/>
<g>
	<path fill="#CB0052" d="M31.461,43.124c-0.127,0.065-0.224,0.096-0.322,0.096c-0.165,0-0.336-0.114-0.397-0.265
		c-0.079-0.188-0.021-0.375,0.175-0.568l0.345-0.345c-0.157-0.157-0.305-0.32-0.449-0.491c-0.094-0.111-0.18-0.229-0.269-0.345
		c-0.004-0.006-0.008-0.013-0.013-0.019c-0.239,0.65-0.867,1.105-1.572,1.105c-0.777,0-1.465-0.549-1.638-1.306
		c-0.102-0.449-0.502-0.769-0.963-0.769h-1.367c-0.461,0-0.861,0.319-0.963,0.769c-0.172,0.757-0.859,1.306-1.637,1.306
		c-0.776,0-1.465-0.549-1.637-1.306c-0.103-0.449-0.502-0.769-0.963-0.769h-1.367c-0.461,0-0.86,0.319-0.963,0.768
		c-0.172,0.758-0.861,1.307-1.638,1.307s-1.465-0.549-1.637-1.306c-0.102-0.449-0.502-0.769-0.963-0.769h-1.367
		c-0.461,0-0.861,0.319-0.963,0.769c-0.172,0.757-0.861,1.306-1.637,1.306c-0.865,0-1.583-0.648-1.67-1.508
		c-0.032-0.324-0.224-0.611-0.511-0.768c-0.543-0.296-0.88-0.861-0.88-1.478c0-0.61,0.334-1.175,0.872-1.472
		c0.315-0.173,0.511-0.504,0.511-0.865v-6.387c0-0.359-0.195-0.691-0.511-0.864c-0.538-0.297-0.872-0.861-0.872-1.472
		c0-0.615,0.337-1.182,0.88-1.477c0.287-0.156,0.479-0.443,0.511-0.768c0.088-0.859,0.806-1.508,1.67-1.508
		c0.776,0,1.465,0.549,1.637,1.306c0.103,0.449,0.502,0.769,0.963,0.769h1.367c0.46,0,0.859-0.319,0.962-0.769
		c0.058-0.249,0.175-0.481,0.351-0.692c0.347-0.418,0.292-1.037-0.123-1.387l-1.349-1.136c-0.096-0.083-0.165-0.156-0.229-0.243
		l-3.729-5.079C8.941,16.269,8.851,15.99,8.852,15.7c-0.002-0.338,0.131-0.672,0.363-0.917l4.739-4.995
		c0.121-0.129,0.266-0.231,0.432-0.301c0.04-0.018,0.08-0.037,0.119-0.06l3.091-1.841C17.801,7.464,18.033,7.4,18.271,7.4h8.034
		c0.237,0,0.47,0.063,0.672,0.183l3.1,1.854c0.038,0.023,0.076,0.042,0.116,0.059c0.161,0.069,0.304,0.171,0.432,0.308l4.585,4.831
		c0.021,0.023,0.043,0.044,0.066,0.064c0.181,0.159,0.314,0.361,0.387,0.589c0.012,0.039,0.027,0.077,0.043,0.114
		c0.037,0.08,0.064,0.165,0.085,0.254c0.082,0.366,0,0.752-0.223,1.054c-2.528,3.387-3.682,4.933-4.278,5.463
		c-0.035,0.032-0.068,0.066-0.098,0.102c-0.169,0.136-0.451,0.365-0.815,0.663c-0.205,0.166-0.334,0.408-0.358,0.67
		c-0.025,0.263,0.056,0.524,0.224,0.728c0.178,0.212,0.296,0.447,0.354,0.697c0.103,0.449,0.502,0.769,0.963,0.769h1.367
		c0.461,0,0.859-0.319,0.962-0.769c0.173-0.757,0.862-1.306,1.639-1.306c0.865,0,1.583,0.647,1.67,1.508
		c0.033,0.325,0.224,0.612,0.511,0.769c0.542,0.295,0.88,0.861,0.88,1.477c0,0.08-0.007,0.158-0.018,0.236
		c0.559,0.084,1.102,0.218,1.621,0.407c0.098,0.036,0.191,0.079,0.288,0.118c0.053-0.248,0.083-0.502,0.083-0.762
		c0-1.17-0.559-2.257-1.484-2.94c-0.391-1.62-1.838-2.788-3.551-2.788c-0.553,0-1.083,0.128-1.563,0.357
		c0.711-0.9,1.7-2.225,3.191-4.222c0.564-0.768,0.77-1.737,0.564-2.658c-0.045-0.203-0.109-0.402-0.192-0.592
		c-0.18-0.535-0.494-1.014-0.914-1.392l-4.551-4.795c-0.292-0.314-0.636-0.562-1.022-0.738l-3.053-1.826
		c-0.51-0.302-1.091-0.462-1.682-0.462h-8.034c-0.592,0-1.174,0.16-1.685,0.464l-3.04,1.811c-0.392,0.176-0.74,0.425-1.029,0.734
		l-4.733,4.99c-0.581,0.61-0.912,1.444-0.907,2.278c-0.003,0.701,0.224,1.398,0.638,1.962l3.243,4.418
		c-0.463-0.211-0.973-0.329-1.502-0.329c-1.712,0-3.159,1.168-3.55,2.787C4.778,25.223,4.22,26.311,4.22,27.48
		c0,1.123,0.518,2.174,1.383,2.861v5.338c-0.865,0.687-1.383,1.738-1.383,2.86c0,1.17,0.559,2.257,1.486,2.94
		c0.392,1.621,1.838,2.788,3.55,2.788c1.406,0,2.679-0.827,3.284-2.055c0.604,1.228,1.877,2.055,3.283,2.055
		c1.405,0,2.68-0.828,3.284-2.055c0.604,1.227,1.877,2.055,3.283,2.055c1.406,0,2.679-0.827,3.283-2.055
		c0.604,1.228,1.877,2.055,3.284,2.055c1.086,0,2.093-0.496,2.772-1.287l-0.229,0.122L31.461,43.124z"/>
	<g>
		<path fill="#33CCCC" d="M43.333,30.138L42.74,30.73l-0.598,0.596c1.206,1.229,1.954,2.91,1.954,4.763
			c0,3.352-2.438,6.144-5.633,6.7c-0.38,0.066-0.77,0.103-1.169,0.103c-1.289,0-2.49-0.367-3.52-0.992l-0.854,0.452l-0.46,0.243
			l-0.279,0.146l-0.08,0.044c0.481,0.373,1.004,0.695,1.559,0.961c0.361,0.174,0.737,0.322,1.125,0.443
			c0.793,0.249,1.636,0.384,2.51,0.384c4.678,0,8.485-3.804,8.485-8.484C45.78,33.771,44.843,31.672,43.333,30.138z"/>
		<path fill="#33CCCC" d="M32.239,40.623c-0.116-0.131-0.226-0.267-0.332-0.404c-0.002-0.003-0.004-0.005-0.006-0.008
			c-0.235-0.307-0.442-0.635-0.623-0.979c-0.15-0.286-0.283-0.581-0.392-0.889c-0.007-0.019-0.011-0.038-0.018-0.057
			c-0.049-0.144-0.091-0.29-0.131-0.437c-0.154-0.563-0.244-1.149-0.244-1.761c0-0.007,0-0.013,0-0.022
			c0.007-1.558,0.543-2.99,1.432-4.136c0.4-0.516,0.873-0.971,1.401-1.354c0.462-0.333,0.968-0.607,1.506-0.817
			c0.206-0.08,0.415-0.153,0.63-0.214c0.245-0.069,0.497-0.123,0.754-0.164c0.321-0.053,0.65-0.085,0.985-0.09
			c0.032,0,0.062-0.004,0.093-0.004c0.021,0,0.042,0.001,0.063,0.002c0.074,0.001,0.148,0.002,0.222,0.005
			c0.769,0.033,1.5,0.198,2.182,0.465c0.015,0.006,0.03,0.01,0.044,0.016c0.354,0.14,0.691,0.312,1.013,0.509l0.856-0.454
			l0.817-0.434c-0.61-0.475-1.288-0.86-2.014-1.154c-0.097-0.039-0.19-0.082-0.288-0.118c-0.52-0.189-1.063-0.323-1.621-0.407
			c-0.321-0.049-0.646-0.086-0.978-0.098c-0.002,0-0.004,0-0.007,0c-0.001,0-0.002,0-0.003,0c-0.096-0.002-0.188-0.013-0.286-0.013
			c-0.629,0-1.24,0.073-1.829,0.204c-0.407,0.091-0.801,0.213-1.183,0.36c-0.32,0.123-0.632,0.263-0.933,0.421
			c-0.112,0.061-0.225,0.119-0.334,0.183c-1.012,0.595-1.886,1.392-2.574,2.333c-0.305,0.417-0.569,0.863-0.794,1.332
			c-0.262,0.546-0.468,1.122-0.608,1.724c-0.144,0.621-0.229,1.263-0.229,1.926c0,1.101,0.217,2.151,0.599,3.114
			c0.014,0.032,0.023,0.066,0.035,0.098c0.011,0.026,0.024,0.051,0.036,0.077c0.052,0.123,0.109,0.243,0.167,0.362
			c0.247,0.513,0.542,0.997,0.882,1.447c0.005,0.006,0.009,0.013,0.013,0.019c0.089,0.116,0.175,0.233,0.269,0.345
			c0.145,0.171,0.292,0.334,0.449,0.491l0.591-0.591l0.599-0.598C32.377,40.778,32.308,40.699,32.239,40.623z"/>
	</g>
	<path fill="#FFCC00" d="M43.454,28.96c-0.102,0-0.195,0.03-0.323,0.098l-0.64,0.339l-0.817,0.434l-0.856,0.454l-1.397,0.737
		l-0.241,0.127l-1.684,0.891l-0.291,0.154l-0.987,0.522l-0.593,0.313l-0.354,0.186l-0.438,0.232l-1.919,1.014l-0.563,0.297
		c-0.215,0.112-0.345,0.309-0.351,0.523c-0.002,0.217,0.12,0.412,0.333,0.534l0.117,0.067l0.735,0.422l1.108,0.639l0.538,0.311
		l0.306,0.176c0.111,0.063,0.188,0.174,0.204,0.304c0.007,0.047-0.005,0.094-0.015,0.139c-0.016,0.077-0.048,0.149-0.102,0.204
		l-1.154,1.155l-1,1l-0.622,0.622l-0.599,0.598l-0.591,0.591l-0.345,0.345c-0.196,0.193-0.254,0.381-0.175,0.568
		c0.062,0.15,0.232,0.265,0.397,0.265c0.099,0,0.195-0.03,0.322-0.096l0.04-0.021l0.229-0.122l0.371-0.196l0.08-0.044l0.279-0.146
		l0.46-0.243l0.854-0.452l0.447-0.236l0.908-0.48l1.086-0.574l2.044-1.081l2.287-1.211l1.694-0.896
		c0.215-0.114,0.343-0.305,0.348-0.525c0.005-0.211-0.117-0.41-0.328-0.531l-2.803-1.623c-0.108-0.063-0.184-0.176-0.201-0.303
		c-0.016-0.124,0.027-0.252,0.116-0.344l2.769-2.768l0.598-0.596l0.593-0.593l0.343-0.343c0.197-0.199,0.254-0.387,0.174-0.572
		C43.79,29.072,43.619,28.96,43.454,28.96z"/>
</g>
</svg>
