<svg version="1.1" id="Layer_1" xmlns="http://www.w3.org/2000/svg" xmlns:xlink="http://www.w3.org/1999/xlink" x="0px" y="0px"
	 width="50px" height="50px" viewBox="0 0 50 50" enable-background="new 0 0 50 50" xml:space="preserve">
<g>
	<g>
		<polygon fill="#C71B24" points="8.583,35.928 8.59,35.92 8.583,35.924 		"/>
	</g>
	<g>
		<polygon fill="#C71B24" points="8.583,35.924 8.581,35.924 8.583,35.928 		"/>
	</g>
	<g>
		<path fill="#FFCC00" d="M42.096,28.666c-0.094,0-0.182,0.027-0.301,0.09l-0.592,0.316l-0.758,0.4l-0.793,0.42l-1.295,0.684
			l-0.223,0.117l-1.559,0.826l-0.271,0.141l-0.914,0.484l-0.549,0.291l-0.328,0.176l-0.404,0.213l-1.775,0.939l-0.521,0.273
			c-0.199,0.104-0.32,0.285-0.324,0.482c-0.002,0.203,0.111,0.381,0.307,0.494l0.107,0.064l0.682,0.391l1.027,0.592l0.5,0.287
			l0.281,0.164c0.1,0.061,0.174,0.16,0.188,0.279c0.01,0.047-0.004,0.09-0.014,0.131c-0.014,0.068-0.043,0.139-0.094,0.188
			l-1.068,1.072l-0.926,0.926l-0.576,0.578l-0.555,0.555l-0.547,0.549l-0.318,0.316c-0.184,0.18-0.236,0.354-0.164,0.525
			c0.057,0.139,0.217,0.244,0.371,0.244c0.09,0,0.18-0.025,0.297-0.086l0.037-0.021l0.213-0.109l0.342-0.186l0.076-0.039
			l0.256-0.137l0.428-0.225l0.793-0.418l0.414-0.221l0.842-0.445l1.004-0.531l1.896-1.002l2.117-1.121l1.568-0.832
			c0.199-0.105,0.318-0.281,0.322-0.484c0.004-0.195-0.107-0.383-0.303-0.492l-2.596-1.504c-0.102-0.061-0.172-0.164-0.189-0.279
			c-0.012-0.115,0.027-0.234,0.109-0.32l2.564-2.564l0.555-0.551l0.549-0.551l0.318-0.316c0.182-0.184,0.232-0.357,0.16-0.529
			C42.406,28.771,42.248,28.666,42.096,28.666z"/>
		<path fill="#33CCCC" d="M42.357,30.17l-1.104,1.104c0.895,1.09,1.436,2.48,1.436,3.996c0,3.105-2.258,5.689-5.219,6.205
			c-0.35,0.063-0.711,0.098-1.08,0.098c-1.197,0-2.309-0.342-3.26-0.92l-0.793,0.42l-0.426,0.225l-0.26,0.137l-0.074,0.039
			c0.445,0.346,0.93,0.645,1.441,0.891c0.336,0.16,0.686,0.301,1.043,0.41c0.736,0.23,1.518,0.357,2.326,0.357
			c4.332,0,7.859-3.525,7.859-7.859C44.25,33.324,43.535,31.541,42.357,30.17z"/>
		<path fill="#33CCCC" d="M39.338,28.002c-0.09-0.037-0.176-0.076-0.266-0.111c-0.482-0.174-0.986-0.297-1.504-0.375
			c-0.297-0.047-0.598-0.08-0.906-0.09c0,0,0,0-0.004,0c0,0-0.002,0-0.004,0c-0.088-0.002-0.174-0.012-0.264-0.012
			c-0.584,0-1.148,0.064-1.695,0.188c-0.377,0.086-0.742,0.197-1.096,0.336c-0.297,0.113-0.586,0.244-0.865,0.393
			c-0.1,0.053-0.207,0.107-0.307,0.166c-0.939,0.553-1.746,1.291-2.385,2.16c-0.281,0.389-0.529,0.801-0.732,1.234
			c-0.244,0.504-0.438,1.039-0.566,1.598c-0.135,0.572-0.213,1.17-0.213,1.783c0,1.02,0.201,1.99,0.557,2.887
			c0.012,0.027,0.02,0.061,0.031,0.09c0.012,0.023,0.023,0.047,0.033,0.07c0.049,0.113,0.104,0.225,0.156,0.338
			c0.229,0.475,0.502,0.924,0.814,1.34c0.004,0.006,0.01,0.012,0.014,0.018c0.082,0.109,0.16,0.217,0.248,0.318
			c0.135,0.16,0.27,0.309,0.416,0.457l0.547-0.549l0.555-0.555c-0.066-0.07-0.133-0.141-0.195-0.213
			c-0.107-0.123-0.209-0.248-0.307-0.375c-0.002-0.002-0.004-0.004-0.006-0.008c-0.219-0.283-0.408-0.588-0.578-0.908
			c-0.139-0.264-0.26-0.537-0.361-0.822c-0.006-0.018-0.012-0.035-0.016-0.053c-0.049-0.133-0.088-0.266-0.125-0.406
			c-0.141-0.52-0.223-1.063-0.223-1.631c0-0.008,0-0.012,0-0.02c0.004-1.441,0.5-2.771,1.324-3.832
			c0.371-0.477,0.809-0.898,1.297-1.252c0.428-0.309,0.896-0.564,1.395-0.76c0.189-0.072,0.383-0.141,0.584-0.195
			c0.23-0.064,0.459-0.115,0.697-0.152c0.297-0.051,0.602-0.078,0.912-0.084c0.029,0,0.057-0.004,0.088-0.004
			c0.018,0,0.039,0,0.057,0.002c0.068,0,0.141,0.002,0.205,0.004c0.713,0.031,1.393,0.186,2.021,0.432
			c0.016,0.006,0.025,0.012,0.041,0.018c0.117,0.045,0.232,0.1,0.344,0.154l1.633-0.867C40.268,28.432,39.814,28.193,39.338,28.002z
			"/>
	</g>
	<path fill="#CB0052" d="M34.752,24.735c-0.355,0-0.641,0.286-0.641,0.64v1.222c0.115-0.029,0.23-0.061,0.342-0.086
		c0.311-0.068,0.625-0.121,0.938-0.156v-0.98C35.391,25.021,35.105,24.735,34.752,24.735z"/>
	<path fill="#CB0052" d="M28.135,38.76c-0.016-0.031-0.029-0.063-0.043-0.098l-0.006-0.014l-0.004-0.014
		c-0.01-0.02-0.016-0.043-0.025-0.07l-0.004-0.006c-0.01-0.023-0.018-0.049-0.025-0.072v0.975c0,0.354,0.287,0.641,0.643,0.641
		c0.059,0,0.111-0.01,0.168-0.021c-0.191-0.309-0.371-0.623-0.527-0.949C28.248,39.014,28.191,38.891,28.135,38.76z"/>
	<path fill="#CB0052" d="M32.184,27.355l0.035-0.02c0.303-0.16,0.633-0.313,0.982-0.443c0.234-0.09,0.471-0.168,0.705-0.238h-4.598
		v-1.28c0-0.354-0.287-0.64-0.641-0.64c-0.355,0-0.643,0.286-0.643,0.64v1.28H25.19l-1.52,1.281h4.355v4.121
		c0.084-0.221,0.178-0.439,0.275-0.652c0.24-0.5,0.523-0.975,0.842-1.41c0.053-0.072,0.109-0.141,0.162-0.209v-1.85h1.934
		c0.201-0.143,0.41-0.279,0.623-0.404C31.975,27.467,32.08,27.41,32.184,27.355z"/>
	<path fill="#CB0052" d="M23.226,28.311c-0.116,0.105-0.254,0.189-0.41,0.227c-0.076,0.02-0.153,0.027-0.23,0.027
		c-0.212,0-0.42-0.068-0.591-0.215l-0.049-0.041v8.59h-4.802v-8.963H21.5l-1.52-1.279h-2.838v-1.281c0-0.354-0.287-0.64-0.643-0.64
		c-0.354,0-0.64,0.286-0.64,0.64v1.281h-4.804v-1.281c0-0.354-0.285-0.64-0.64-0.64s-0.639,0.286-0.639,0.64v1.281h-0.64
		c-0.354,0-0.641,0.285-0.641,0.641c0,0.354,0.285,0.643,0.641,0.643h0.641v8.963H9.14c-0.354,0-0.641,0.287-0.641,0.641
		s0.285,0.639,0.641,0.639H9.78v1.281c0,0.354,0.286,0.643,0.639,0.643c0.354,0,0.641-0.289,0.641-0.643v-1.281h4.802v1.281
		c0,0.354,0.286,0.643,0.641,0.643s0.642-0.289,0.642-0.643v-1.281h4.802v1.281c0,0.354,0.286,0.643,0.64,0.643
		s0.641-0.289,0.641-0.643v-1.281h4.689c-0.146-0.418-0.262-0.844-0.34-1.279h-4.35v-8.592H23.226z M15.862,36.9h-4.802v-8.963
		h4.802V36.9L15.862,36.9z"/>
	<path fill="#CB0052" d="M29.293,42.051c-0.164-0.391-0.148-0.805,0.021-1.184c-0.199,0.092-0.418,0.148-0.648,0.148
		c-0.719,0-1.357-0.508-1.516-1.209c-0.096-0.416-0.465-0.711-0.893-0.711h-1.265c-0.427,0-0.797,0.295-0.893,0.711
		c-0.158,0.701-0.795,1.209-1.516,1.209c-0.719,0-1.357-0.508-1.516-1.209c-0.096-0.416-0.465-0.711-0.893-0.711h-1.266
		c-0.426,0-0.797,0.295-0.893,0.711c-0.158,0.701-0.797,1.209-1.517,1.209c-0.718,0-1.355-0.508-1.516-1.209
		c-0.094-0.416-0.465-0.711-0.891-0.711h-1.267c-0.428,0-0.798,0.295-0.893,0.711c-0.159,0.701-0.796,1.209-1.517,1.209
		c-0.801,0-1.466-0.6-1.547-1.398c-0.03-0.301-0.207-0.564-0.473-0.709c-0.503-0.275-0.814-0.797-0.814-1.369
		c0-0.566,0.31-1.086,0.808-1.363c0.293-0.158,0.473-0.469,0.473-0.801v-5.916c0-0.332-0.18-0.641-0.473-0.801
		c-0.498-0.275-0.808-0.797-0.808-1.363c0-0.57,0.312-1.096,0.814-1.367c0.267-0.145,0.442-0.41,0.473-0.71
		c0.081-0.796,0.747-1.397,1.547-1.397c0.72,0,1.357,0.509,1.518,1.211c0.095,0.415,0.464,0.71,0.892,0.71h1.267
		c0.426,0,0.796-0.295,0.891-0.71c0.054-0.23,0.161-0.447,0.324-0.643c0.321-0.388,0.27-0.962-0.112-1.285l-1.251-1.052
		c-0.088-0.076-0.152-0.144-0.211-0.225l-3.454-4.705c-0.152-0.209-0.237-0.467-0.236-0.736c-0.002-0.312,0.121-0.62,0.337-0.848
		l4.39-4.628c0.112-0.118,0.246-0.213,0.4-0.277c0.038-0.017,0.073-0.034,0.11-0.056l2.863-1.705
		c0.19-0.114,0.405-0.173,0.625-0.173h7.441c0.219,0,0.434,0.059,0.621,0.17l2.871,1.718c0.035,0.021,0.068,0.039,0.104,0.055
		c0.152,0.063,0.283,0.159,0.404,0.285l4.242,4.475c0.021,0.021,0.043,0.042,0.063,0.06c0.17,0.146,0.293,0.334,0.359,0.545
		c0.012,0.036,0.023,0.071,0.041,0.104c0.031,0.076,0.061,0.153,0.078,0.236c0.076,0.34,0,0.697-0.207,0.976
		c-2.342,3.136-3.41,4.569-3.961,5.06c-0.033,0.03-0.063,0.062-0.092,0.095c-0.156,0.127-0.416,0.339-0.756,0.613
		c-0.189,0.155-0.309,0.379-0.332,0.621c-0.023,0.245,0.053,0.485,0.207,0.673c0.164,0.197,0.273,0.415,0.328,0.647
		c0.098,0.414,0.465,0.71,0.891,0.71h1.268c0.426,0,0.795-0.297,0.891-0.71c0.16-0.701,0.799-1.21,1.521-1.21
		c0.799,0,1.465,0.6,1.543,1.397c0.033,0.301,0.207,0.568,0.475,0.713c0.197,0.104,0.361,0.252,0.49,0.42
		c0.146,0.016,0.307,0.035,0.473,0.061c0.576,0.086,1.125,0.223,1.639,0.406c-0.127-0.898-0.602-1.707-1.33-2.245
		c-0.363-1.502-1.705-2.582-3.289-2.582c-0.512,0-1.006,0.118-1.447,0.331c0.656-0.834,1.576-2.061,2.955-3.911
		c0.523-0.71,0.717-1.608,0.523-2.461c-0.041-0.187-0.1-0.372-0.178-0.549c-0.164-0.494-0.455-0.938-0.848-1.287l-4.217-4.443
		c-0.271-0.291-0.586-0.52-0.945-0.684l-2.83-1.691c-0.469-0.281-1.008-0.427-1.555-0.427h-7.441c-0.549,0-1.088,0.148-1.561,0.43
		l-2.815,1.677c-0.364,0.163-0.686,0.393-0.954,0.68L9.053,14.28c-0.537,0.565-0.845,1.336-0.841,2.108
		c-0.002,0.65,0.207,1.295,0.591,1.819l3.005,4.092c-0.43-0.196-0.901-0.305-1.393-0.305c-1.586,0-2.925,1.082-3.288,2.581
		c-0.857,0.634-1.376,1.64-1.376,2.722c0,1.043,0.48,2.018,1.28,2.652v4.941c-0.801,0.637-1.28,1.609-1.28,2.65
		c0,1.082,0.518,2.09,1.376,2.723c0.363,1.502,1.703,2.582,3.288,2.582c1.302,0,2.48-0.768,3.043-1.902
		c0.559,1.137,1.737,1.902,3.04,1.902c1.302,0,2.481-0.768,3.043-1.902c0.56,1.137,1.738,1.902,3.041,1.902
		c1.304,0,2.481-0.768,3.041-1.902c0.563,1.137,1.74,1.902,3.043,1.902c0.381,0,0.748-0.068,1.092-0.189
		C29.559,42.498,29.393,42.293,29.293,42.051z"/>
	<g>
		<polygon fill="#CB0052" points="30.074,14.93 33.025,16.568 30.697,19.74 		"/>
		<polygon fill="#CB0052" points="29.943,13.649 29.943,13.074 31.088,14.28 		"/>
		<polygon fill="#CB0052" points="26.619,16.305 29.002,14.875 29.607,19.54 		"/>
		<polygon fill="#CB0052" points="15.227,13.074 15.227,13.649 14.083,14.28 		"/>
		<polygon fill="#CB0052" points="19.529,15.657 16.281,13.666 16.281,12.074 19.017,10.445 26.166,10.445 28.889,12.073 
			28.889,13.665 25.639,15.657 		"/>
		<polygon fill="#CB0052" points="20.237,16.722 24.933,16.722 22.585,21.441 		"/>
		<polygon fill="#CB0052" points="26.736,22.374 28.434,22.032 25.1,24.842 		"/>
		<polygon fill="#CB0052" points="23.134,23.102 25.087,22.703 25.277,22.665 23.134,25.898 		"/>
		<polygon fill="#CB0052" points="25.807,17.333 25.92,17.104 29.316,20.778 26.314,21.375 24.81,21.684 23.535,21.938 		"/>
		<path fill="#CB0052" d="M18.881,21.374l-3.029-0.597l3.396-3.674l0.119,0.237l2.267,4.594
			C21.633,21.935,18.886,21.374,18.881,21.374z"/>
		<polygon fill="#CB0052" points="12.146,16.568 15.095,14.932 14.471,19.739 		"/>
		<polygon fill="#CB0052" points="16.167,14.876 18.545,16.31 15.56,19.54 		"/>
		<polygon fill="#CB0052" points="16.737,22.033 18.484,22.381 20.167,24.92 		"/>
		<polygon fill="#CB0052" points="19.943,22.677 22.081,23.104 22.081,25.9 		"/>
	</g>
</g>
</svg>