<svg version="1.1" id="Layer_1" xmlns="http://www.w3.org/2000/svg" xmlns:xlink="http://www.w3.org/1999/xlink" x="0px" y="0px"
	 width="50px" height="50px" viewBox="0 0 50 50" enable-background="new 0 0 50 50" xml:space="preserve">
<g>
	<path fill="#FFCC00" d="M42.952,29c-0.05-0.133-0.2-0.232-0.345-0.232c-0.09,0-0.173,0.026-0.283,0.089l-0.559,0.296l-0.717,0.382
		l-0.751,0.396l-1.226,0.647l-3.324,1.76l-2.867,1.513c-0.188,0.102-0.304,0.271-0.308,0.459c-0.003,0.193,0.104,0.362,0.292,0.467
		l0.744,0.428l1.715,0.986c0.096,0.059,0.163,0.157,0.178,0.268c0.01,0.041-0.006,0.082-0.015,0.119
		c-0.011,0.069-0.042,0.134-0.089,0.182l-2.43,2.433l-0.527,0.522l-0.516,0.52l-0.303,0.301c-0.172,0.17-0.221,0.333-0.156,0.496
		c0.056,0.131,0.206,0.235,0.35,0.235c0.088,0,0.172-0.028,0.285-0.085l0.561-0.297l0.068-0.038l0.648-0.343l0.748-0.395
		l7.419-3.924c0.188-0.1,0.3-0.27,0.307-0.461c0.002-0.187-0.103-0.359-0.288-0.467l-2.458-1.423
		c-0.095-0.054-0.16-0.15-0.175-0.266c-0.014-0.105,0.023-0.219,0.101-0.298l2.427-2.426l0.521-0.522l0.521-0.521l0.302-0.3
		C42.975,29.326,43.025,29.164,42.952,29z"/>
	<path fill="#33CCCC" d="M43.049,30.429l-1.053,1.052c0.734,0.989,1.173,2.212,1.173,3.535c0,3.285-2.671,5.96-5.956,5.96
		c-1.131,0-2.183-0.323-3.086-0.868l-0.748,0.395l-0.648,0.343l-0.068,0.038c1.257,0.976,2.834,1.568,4.551,1.568
		c4.096,0,7.432-3.335,7.432-7.436C44.645,33.284,44.043,31.694,43.049,30.429z"/>
	<path fill="#33CCCC" d="M39.748,28.039c-0.716-0.262-1.48-0.414-2.275-0.445c-0.087-0.002-0.172-0.012-0.26-0.012
		c-1.37,0-2.648,0.38-3.75,1.028c-0.886,0.517-1.649,1.215-2.256,2.042c-0.575,0.791-1,1.693-1.23,2.679
		c-0.125,0.542-0.198,1.104-0.198,1.685c0,0.968,0.19,1.885,0.524,2.728c0.014,0.031,0.021,0.058,0.03,0.087
		c0.299,0.719,0.702,1.384,1.196,1.971c0.129,0.152,0.258,0.294,0.396,0.432l0.516-0.52l0.527-0.522
		c-0.066-0.069-0.127-0.134-0.188-0.202c-0.516-0.579-0.923-1.252-1.186-1.996c-0.218-0.621-0.344-1.283-0.344-1.977
		c0-0.008,0-0.012,0-0.018c0.009-1.367,0.475-2.621,1.258-3.626c1.071-1.386,2.741-2.284,4.62-2.313c0.03,0,0.054-0.002,0.083-0.002
		c0.766,0,1.495,0.152,2.168,0.418l1.602-0.85C40.592,28.396,40.18,28.191,39.748,28.039z"/>
	<path fill="#3D596D" d="M35.649,13.343c-1.653-1.846-3.641-3.293-5.906-4.3c-2.228-0.991-4.591-1.493-7.026-1.493
		c-9.574,0-17.363,7.788-17.363,17.359c0,2.436,0.501,4.797,1.489,7.017c1,2.259,2.448,4.249,4.307,5.918
		c3.189,2.855,7.298,4.428,11.567,4.428c2.731,0,5.458-0.668,7.91-1.934c-0.482-0.611-0.882-1.291-1.188-2.024
		c-0.016-0.036-0.027-0.073-0.037-0.103c-0.393-0.993-0.592-2.029-0.592-3.084c0-0.62,0.076-1.262,0.225-1.906
		c0.111-0.479,0.269-0.951,0.466-1.408l-2.011-5.979l-2.661-7.922l0.337-0.024c0.738-0.05,1.33-0.118,1.335-0.12
		c0.43-0.051,0.607-0.396,0.59-0.694c-0.018-0.294-0.227-0.61-0.645-0.611l-0.043,0.001l-0.697,0.05
		c-1.418,0.094-2.53,0.141-3.303,0.141c-1.449,0-3.923-0.188-3.947-0.191l-0.047-0.001c-0.458,0-0.637,0.388-0.645,0.648
		c-0.009,0.298,0.172,0.63,0.618,0.658c0.047,0.007,0.66,0.082,1.357,0.129l0.17,0.012l2.327,6.371l-2.941,8.819l-0.308,0.923
		l-5.418-16.113l0.338-0.024c0.671-0.045,1.231-0.107,1.338-0.12c0.429-0.051,0.604-0.395,0.586-0.693
		c-0.017-0.294-0.225-0.611-0.641-0.612l-0.038,0.001c-0.021,0.002-2.451,0.191-4.006,0.191c-0.131,0-0.273-0.001-0.423-0.004
		l-0.496-0.01l0.288-0.404c2.806-3.942,7.368-6.296,12.201-6.296c2.106,0,4.146,0.431,6.06,1.282
		c1.265,0.562,2.443,1.293,3.502,2.172l0.42,0.349l-0.534,0.109c-1.196,0.245-2.065,1.357-2.065,2.645
		c0,1.149,0.629,2.166,1.298,3.244l0.185,0.301l0.158,0.279c0.529,0.959,1.069,2.165,1.069,3.832c0,1.21-0.435,2.591-1.035,4.503
		l-0.036,0.112c0.386-0.332,0.799-0.626,1.234-0.881c0.297-0.174,0.612-0.334,0.939-0.475l0.962-2.784
		c0.777-1.938,1.139-3.646,1.139-5.374v-0.042l0.504-0.101c0.774,1.844,1.167,3.794,1.167,5.797c0,0.587-0.039,1.202-0.117,1.832
		c0.805,0.035,1.594,0.185,2.348,0.441c0.109-0.794,0.162-1.541,0.162-2.273C40.076,20.64,38.504,16.532,35.649,13.343z
		 M21.085,31.828l1.896-5.509l1.074,2.95l3.574,9.783l-0.257,0.085c-1.506,0.493-3.073,0.742-4.655,0.742
		c-1.33,0-2.652-0.177-3.929-0.525l-0.27-0.075L21.085,31.828z M16.119,38.369l-0.611-0.339c-0.704-0.39-1.388-0.843-2.034-1.351
		c-1.922-1.512-3.459-3.49-4.448-5.721c-0.849-1.917-1.279-3.953-1.279-6.05c0-1.858,0.338-3.672,1.004-5.391l0.251-0.647
		L16.119,38.369z"/>
</g>
</svg>