
<svg version="1.1" id="Layer_1" xmlns="http://www.w3.org/2000/svg" xmlns:xlink="http://www.w3.org/1999/xlink" x="0px" y="0px"
	 width="50px" height="50px" viewBox="0 0 50 50" enable-background="new 0 0 50 50" xml:space="preserve">
<g>
	<path fill="none" d="M10.373,29.67L5.972,17.615c-0.989,2.217-1.544,4.672-1.544,7.258c0,2.567,0.548,5.002,1.523,7.208
		c1.189,2.686,3.02,5.023,5.301,6.816c0.997,0.785,2.077,1.469,3.229,2.027l-1.153-3.16L10.373,29.67z"/>
	<path fill="none" d="M39.807,28.066c0.187-1.035,0.293-2.103,0.293-3.194c0-3.101-0.792-6.016-2.184-8.556
		c0.077,0.566,0.118,1.176,0.118,1.833c0,1.811-0.336,3.844-1.355,6.389l-1.637,4.731c1.311-0.77,2.83-1.217,4.457-1.217
		C39.604,28.053,39.704,28.064,39.807,28.066z"/>
	<path fill="none" d="M23.895,30.043l-1.318-3.609l-2.289,6.654l-3.062,8.895c1.598,0.473,3.287,0.729,5.039,0.729
		c2.077,0,4.068-0.361,5.922-1.012c-0.047-0.078-0.092-0.158-0.127-0.248L23.895,30.043z"/>
	<path fill="none" d="M31.232,40.291c0.03-0.02,0.06-0.039,0.09-0.057c-0.013-0.033-0.022-0.068-0.037-0.102L31.232,40.291z"/>
	<path fill="none" d="M32.946,29.74c0.771-2.467,1.357-4.241,1.357-5.767c0-2.001-0.651-3.442-1.279-4.579
		c-0.063-0.114-0.129-0.23-0.19-0.34c-0.902-1.47-1.752-2.712-1.752-4.184c0-1.64,1.241-3.165,2.994-3.165
		c0.08,0,0.156,0.008,0.232,0.015c-1.415-1.297-3.044-2.367-4.821-3.156c-2.209-0.981-4.651-1.527-7.223-1.527
		c-6.232,0-11.714,3.197-14.903,8.039c0.419,0.014,0.814,0.021,1.148,0.021c1.864,0,4.754-0.227,4.754-0.227
		c0.96-0.055,1.073,1.357,0.113,1.472c0,0-0.967,0.112-2.04,0.169l3.411,10.149l2.832,8.426l0.251,0.744l0.403-1.209l3.501-10.497
		L20.7,21.289l-1.744-4.777c-0.961-0.057-1.871-0.169-1.871-0.169c-0.962-0.059-0.849-1.526,0.113-1.472
		c0,0,2.944,0.227,4.697,0.227c1.243,0,2.936-0.102,3.931-0.168c0.496-0.034,0.822-0.059,0.822-0.059
		c0.962-0.055,1.077,1.357,0.115,1.472c0,0-0.967,0.112-2.042,0.169l3.184,9.471l2.994,8.901c0.273-1.166,0.775-2.244,1.461-3.184
		L32.946,29.74z"/>
	<path fill="#3D596D" d="M31.232,40.291l0.053-0.158c-0.397-1.004-0.623-2.098-0.623-3.244c0-0.691,0.088-1.359,0.237-2.006
		l-2.994-8.901l-3.184-9.471c1.075-0.057,2.042-0.169,2.042-0.169c0.962-0.114,0.847-1.526-0.115-1.472c0,0-0.326,0.024-0.822,0.059
		c-0.995,0.066-2.688,0.168-3.931,0.168c-1.753,0-4.697-0.227-4.697-0.227c-0.962-0.055-1.075,1.413-0.113,1.472
		c0,0,0.91,0.112,1.871,0.169l1.744,4.777l1.035,2.836l-3.501,10.497l-0.403,1.209l-0.251-0.744l-2.832-8.426l-3.411-10.149
		c1.073-0.057,2.04-0.169,2.04-0.169c0.96-0.114,0.847-1.526-0.113-1.472c0,0-2.89,0.227-4.754,0.227
		c-0.334,0-0.729-0.008-1.148-0.021c3.189-4.842,8.671-8.039,14.903-8.039c2.571,0,5.014,0.546,7.223,1.527
		c1.777,0.789,3.406,1.859,4.821,3.156c-0.076-0.007-0.152-0.015-0.232-0.015c-1.753,0-2.994,1.525-2.994,3.165
		c0,1.472,0.85,2.714,1.752,4.184c0.062,0.109,0.127,0.226,0.19,0.34c0.628,1.137,1.279,2.578,1.279,4.579
		c0,1.526-0.586,3.3-1.357,5.767l-0.586,1.959c0.718-0.98,1.628-1.811,2.682-2.43l1.637-4.731c1.02-2.545,1.355-4.578,1.355-6.389
		c0-0.657-0.041-1.267-0.118-1.833c1.392,2.54,2.184,5.455,2.184,8.556c0,1.091-0.106,2.159-0.293,3.194
		c0.947,0.033,1.855,0.215,2.707,0.525c0.222-1.209,0.353-2.447,0.353-3.719c0-5.268-1.989-10.078-5.254-13.726
		c-1.937-2.161-4.319-3.909-7.006-5.104c-2.551-1.135-5.372-1.771-8.342-1.771c-11.36,0-20.603,9.241-20.603,20.6
		c0,2.963,0.634,5.78,1.766,8.327c1.194,2.693,2.946,5.082,5.111,7.021c3.646,3.266,8.457,5.254,13.726,5.254
		c3.83,0,7.407-1.068,10.48-2.896c-0.588-0.697-1.07-1.488-1.423-2.344C31.292,40.252,31.263,40.271,31.232,40.291z M11.252,38.896
		c-2.281-1.793-4.111-4.131-5.301-6.816c-0.976-2.205-1.523-4.641-1.523-7.208c0-2.586,0.555-5.041,1.544-7.258l4.401,12.055
		l2.954,8.094l1.153,3.16C13.329,40.365,12.249,39.682,11.252,38.896z M22.265,42.711c-1.752,0-3.441-0.256-5.039-0.729l3.062-8.895
		l2.289-6.654l1.318,3.609l4.165,11.408c0.035,0.09,0.08,0.17,0.127,0.248C26.333,42.35,24.342,42.711,22.265,42.711z"/>
	<g>
		<path fill="#33CCCC" d="M45.788,30.689l-0.617,0.617l-0.623,0.621c1.257,1.279,2.036,3.031,2.036,4.961
			c0,3.906-3.179,7.086-7.085,7.086c-1.344,0-2.595-0.383-3.667-1.033l-0.89,0.471l-0.77,0.406l-0.084,0.045
			c1.497,1.162,3.371,1.863,5.41,1.863c4.872,0,8.839-3.963,8.839-8.838C48.338,34.475,47.361,32.287,45.788,30.689z"/>
		<path fill="#33CCCC" d="M34.232,41.611c-0.615-0.688-1.098-1.49-1.409-2.375c-0.26-0.736-0.408-1.523-0.408-2.348
			c0-0.008,0-0.014,0-0.023c0.007-1.623,0.564-3.115,1.491-4.309c1.277-1.646,3.261-2.717,5.496-2.748
			c0.033,0,0.063-0.004,0.097-0.004c0.925,0,1.805,0.184,2.614,0.508c0.369,0.145,0.72,0.324,1.055,0.529l0.892-0.473l0.852-0.451
			c-0.72-0.561-1.526-1.01-2.397-1.326c-0.852-0.311-1.76-0.492-2.707-0.525c-0.103-0.002-0.203-0.014-0.308-0.014
			c-1.627,0-3.146,0.447-4.457,1.217c-1.054,0.619-1.964,1.449-2.682,2.43c-0.686,0.939-1.188,2.018-1.461,3.184
			c-0.149,0.646-0.237,1.314-0.237,2.006c0,1.146,0.226,2.24,0.623,3.244c0.015,0.033,0.024,0.068,0.037,0.102
			c0.353,0.855,0.835,1.646,1.423,2.344c0.15,0.178,0.304,0.348,0.468,0.512l0.615-0.615l0.624-0.623
			C34.376,41.773,34.304,41.691,34.232,41.611z"/>
	</g>
	<path fill="#FFCC00" d="M46.326,29.736c-0.062-0.156-0.24-0.273-0.412-0.273c-0.105,0-0.203,0.031-0.337,0.102l-0.666,0.354
		l-0.852,0.451l-0.892,0.473l-1.456,0.768l-3.954,2.092l-3.408,1.801c-0.224,0.117-0.359,0.322-0.365,0.545
		c-0.002,0.227,0.125,0.43,0.347,0.557l0.888,0.51l2.034,1.172c0.115,0.066,0.195,0.182,0.212,0.316
		c0.008,0.049-0.005,0.098-0.015,0.145c-0.017,0.08-0.05,0.156-0.106,0.213l-2.892,2.893l-0.624,0.623l-0.615,0.615l-0.358,0.359
		c-0.205,0.201-0.265,0.396-0.183,0.592c0.063,0.156,0.242,0.275,0.414,0.275c0.103,0,0.203-0.031,0.336-0.1l0.667-0.354
		l0.084-0.045l0.77-0.406l0.89-0.471l8.82-4.666c0.224-0.119,0.356-0.318,0.361-0.547c0.006-0.221-0.121-0.428-0.341-0.555
		l-2.92-1.689c-0.113-0.066-0.191-0.184-0.21-0.316c-0.016-0.129,0.029-0.262,0.121-0.357l2.884-2.883l0.623-0.621l0.617-0.617
		l0.357-0.357C46.351,30.125,46.41,29.93,46.326,29.736z"/>
</g>
</svg>